<svg aria-hidden="true" style="position: absolute; width: 0; height: 0; overflow: hidden;" version="1.1"
    xmlns="http://www.w3.org/2000/svg" xmlns:xlink="http://www.w3.org/1999/xlink">
    <defs>
        <symbol id="icon-check" viewBox="0 0 37 32">
            <path fill="none" stroke="#fff" style="stroke: var(--color1, #fff)" stroke-linejoin="miter"
                stroke-linecap="butt" stroke-miterlimit="4" stroke-width="4.5714"
                d="M4.571 16l9.143 9.143 20.571-20.571"></path>
        </symbol>
        <symbol id="icon-close" viewBox="0 0 32 32">
            <path stroke-linejoin="round" stroke-linecap="round" stroke-miterlimit="4" stroke-width="2.2857"
                d="M24 8l-16 16"></path>
            <path stroke-linejoin="round" stroke-linecap="round" stroke-miterlimit="4" stroke-width="2.2857"
                d="M8 8l16 16"></path>
        </symbol>
        <symbol id="icon-user-star" viewBox="0 0 33 32">
            <path fill="#fff" style="fill: var(--color1, #fff)"
                d="M18.148 27.34l-3.177-3.060-2.959-2.84 3.946-0.58 4.439-0.64 0.572-1.14h-0.039c-0.453 0-0.892-0.158-1.244-0.447s-0.595-0.692-0.688-1.141c-0.002-1.234 1.576-0.834 2.819-2.914 0.158-0.040 5.564-14.58-5.485-14.58s-5.643 14.54-5.643 14.54c1.243 2 2.841 1.7 2.821 2.9s-1.46 1.6-2.821 1.74c-2.249 0.26-4.222-0.26-6.195 3.52-1.184 2.18-1.677 9.3-1.677 9.3h14.521v-0.34l0.809-4.318zM23.673 32h1.105l-0.552-0.28-0.552 0.28z">
            </path>
            <path fill="#fff" style="fill: var(--color1, #fff)"
                d="M24.225 29.46l4.873 2.54-0.927-5.38 3.946-3.8-5.445-0.78-2.447-4.9-2.446 4.9-5.445 0.78 3.946 3.8-0.927 5.38 4.873-2.54z">
            </path>
        </symbol>
    </defs>
</svg>