<svg width="373" height="341" viewBox="0 0 373 341" fill="none" xmlns="http://www.w3.org/2000/svg">
<path d="M17.0782 38.2652C20.0221 39.4535 27.2208 39.3076 27.2287 39.3076C27.2365 39.3076 25.6586 34.9335 25.5487 34.6638C23.9629 31.5946 18.9623 26.5498 14.9193 27.031C14.2445 27.1304 13.5999 27.3608 13.0275 27.7072C12.4551 28.0537 11.9677 28.5083 11.5973 29.0415C11.2269 29.5746 10.9818 30.1743 10.8778 30.8014C10.7739 31.4285 10.8135 32.069 10.9942 32.6809C11.6772 35.298 14.5661 37.2445 17.0782 38.2652Z" fill="#2C7250"/>
<path d="M89.9291 39.7304C89.9919 39.7304 91.2401 35.2907 91.2872 34.9991C91.7896 31.6237 90.6356 24.8366 86.9381 23.1817C86.3165 22.9223 85.6431 22.7872 84.9616 22.7852C84.2802 22.7832 83.6059 22.9143 82.9825 23.1701C82.3591 23.4258 81.8007 23.8005 81.3434 24.2697C80.8861 24.7389 80.5402 25.2922 80.3281 25.8936C79.339 28.4233 80.5951 31.5289 82.0866 33.6577C83.8294 36.1655 89.9291 39.7304 89.9291 39.7304Z" fill="#2C7250"/>
<path d="M111.432 15.4907C107.349 15.0825 102.506 20.2804 101.014 23.386C100.881 23.6557 99.3891 28.0736 99.444 28.0736H99.5304C98.7454 28.8828 97.9603 29.7649 97.0654 30.7491C95.4953 32.5643 93.6819 34.6348 91.9077 37.0114C89.9563 39.5499 88.1685 42.1936 86.5538 44.9285C84.7243 47.9801 83.1951 51.1789 81.9849 54.4859C81.9849 54.5224 81.9849 54.5661 81.9849 54.6026C81.9849 53.4872 81.9849 50.367 81.9221 50.1264C81.4511 46.751 78.4052 40.4888 74.3701 39.7962C73.6944 39.696 73.0035 39.7294 72.3426 39.8943C71.6818 40.0592 71.0659 40.3518 70.5353 40.753C70.0047 41.1542 69.5713 41.655 69.2635 42.2226C68.9557 42.7901 68.7805 43.4116 68.7492 44.0464C68.5137 46.7292 70.6098 49.412 72.6744 51.1033C74.9746 53.0133 81.3647 54.865 81.875 55.0035C80.7284 58.3972 79.8263 61.858 79.1745 65.3629C78.782 67.3969 78.4523 69.46 78.1539 71.5377C78.1539 70.5681 78.1539 69.7078 78.099 69.5912C77.628 66.2158 74.582 59.9463 70.547 59.2537C69.8736 59.1569 69.1859 59.1927 68.5284 59.3587C67.871 59.5247 67.2584 59.8172 66.7306 60.2174C66.2028 60.6175 65.7715 61.1162 65.4647 61.6811C65.1578 62.2461 64.9824 62.8646 64.9497 63.4966C64.7142 66.1794 66.8024 68.8622 68.8748 70.5535C70.9473 72.2448 76.3091 73.9362 77.7222 74.3736C77.6201 75.1682 77.5024 75.9628 77.4003 76.7575C76.9057 80.5848 76.4347 84.4049 75.8302 88.1374C75.6261 89.4497 75.3671 90.74 75.1159 92.0304C75.1159 91.1702 75.1159 90.4484 75.0688 90.3391C74.5977 86.9637 71.5518 80.7015 67.5167 80.0089C66.8431 79.9097 66.1544 79.9438 65.4959 80.1089C64.8374 80.274 64.2238 80.5663 63.6954 80.9669C63.167 81.3674 62.7357 81.8671 62.4296 82.4332C62.1236 82.9993 61.9497 83.619 61.9194 84.2518C61.6761 86.9273 63.7721 89.6174 65.8446 91.3087C67.9171 93 72.8079 94.5382 74.48 95.0485C74.1817 96.3681 73.8834 97.6803 73.5301 98.9415C73.271 99.7945 73.0748 100.64 72.7451 101.486C72.4153 102.331 72.1641 103.163 71.8737 103.986C71.2613 105.561 70.6333 107.187 69.9896 108.71C69.55 109.775 69.1104 110.773 68.6786 111.787C68.8984 110.482 69.2752 107.916 69.2831 107.697C69.2374 104.702 68.3643 101.767 66.7474 99.1748C66.7617 98.8408 66.7407 98.5062 66.6846 98.176C66.5984 97.5529 66.373 96.9533 66.0229 96.4157C65.6729 95.8782 65.2057 95.4144 64.6515 95.0541C64.0973 94.6938 63.4681 94.445 62.8044 94.3235C62.1406 94.202 61.4568 94.2106 60.7969 94.3487C56.8717 95.3256 54.3203 101.792 54.1319 105.189C54.1319 105.393 54.2654 107.58 54.3753 108.958C54.179 108.156 53.9906 107.376 53.7786 106.552C53.3626 104.927 52.8916 103.308 52.397 101.573L51.612 99.0508C51.3529 98.2052 50.9682 97.3449 50.6542 96.4774C49.8692 94.4872 48.9664 92.5043 48.0165 90.5213C49.5473 90.1787 54.9797 88.8956 57.1621 87.3428C59.3445 85.79 61.6368 83.2603 61.6133 80.5702C61.6321 79.9375 61.5071 79.3082 61.2465 78.7233C60.9858 78.1384 60.5954 77.6111 60.1007 77.1757C59.6059 76.7403 59.0179 76.4066 58.375 76.1964C57.732 75.9862 57.0486 75.9041 56.3693 75.9555C52.2871 76.3638 48.7466 82.4001 48.0087 85.739C47.9616 85.9431 47.7182 88.3926 47.6161 89.734C47.0352 88.553 46.4621 87.3647 45.8263 86.1837C44.005 82.7719 42.0424 79.3746 40.1034 75.9774C39.5067 74.9349 38.9337 73.8924 38.3449 72.8499C38.8944 72.7333 45.4102 71.3336 47.8281 69.5912C50.0026 68.0457 52.3028 65.516 52.2871 62.8259C52.3046 62.1925 52.1786 61.5628 51.9172 60.9776C51.6557 60.3923 51.2647 59.8647 50.7695 59.4289C50.2743 58.993 49.6859 58.6588 49.0426 58.4477C48.3993 58.2367 47.7153 58.1536 47.0352 58.2039C42.9609 58.6195 39.4204 64.6557 38.6746 67.9874C38.6197 68.2352 38.2821 71.7564 38.2428 72.6604C36.9004 70.3713 35.6679 68.104 34.5453 65.7566C32.9889 62.6373 31.6516 59.4278 30.5417 56.1481C30.8007 56.0971 37.607 54.6901 40.0877 52.8821C42.2544 51.3293 44.5624 48.7996 44.5388 46.1095C44.5569 45.4737 44.4301 44.8416 44.1667 44.2545C43.9033 43.6675 43.5093 43.1387 43.0104 42.703C42.5116 42.2673 41.9192 41.9344 41.2721 41.7262C40.6249 41.518 39.9378 41.4391 39.2555 41.4948C35.1734 41.9031 31.6329 47.9394 30.8949 51.271C30.8478 51.4897 30.5809 54.187 30.4867 55.4555H30.2512C29.231 52.1176 28.5321 48.7021 28.163 45.2493C27.9353 43.3538 27.8333 41.5386 27.7705 39.7598C29.0501 39.6723 34.9849 38.9433 37.4264 37.5654C39.8679 36.1876 42.3957 33.9641 42.6547 31.2886C42.744 30.6628 42.6909 30.0267 42.4989 29.4212C42.3068 28.8157 41.9802 28.2543 41.54 27.7734C41.0998 27.2925 40.5558 26.9026 39.9433 26.6291C39.3307 26.3556 38.6632 26.2044 37.9838 26.1854C33.8781 26.1854 29.6467 31.8207 28.5163 35.0576C28.4613 35.2325 28.0453 37.0843 27.7312 38.4402C27.7312 37.6383 27.6841 36.8145 27.6841 36.0418C27.6841 33.1621 27.8882 30.5231 28.0845 28.1902C28.2023 26.8634 28.3436 25.6605 28.4849 24.5451C29.6781 23.8161 34.4197 20.674 35.8799 18.4505C37.34 16.227 38.4705 13.1506 37.45 10.65C37.2223 10.0526 36.8614 9.50652 36.391 9.04743C35.9206 8.58833 35.3512 8.22657 34.7199 7.98576C34.0887 7.74495 33.4099 7.63052 32.7278 7.64994C32.0457 7.66936 31.3756 7.8222 30.7615 8.09846C27.1189 9.84811 26.1533 16.6571 26.7578 20.0179C26.8128 20.3095 28.1866 24.7565 28.2494 24.7201C28.2752 24.706 28.2989 24.6888 28.32 24.6691C28.163 25.748 28.006 26.8999 27.8568 28.1684C27.6056 30.5012 27.3466 33.1403 27.2759 36.0345C27.1621 39.1516 27.2434 42.2722 27.5193 45.3805C27.8079 48.8612 28.4305 52.311 29.3798 55.6888C29.3833 55.7301 29.3833 55.7715 29.3798 55.8127C28.7753 54.8504 26.8756 52.2697 26.695 52.0656C24.3399 49.4922 18.0596 45.8325 14.2601 47.3197C13.6404 47.5836 13.0876 47.9656 12.6373 48.4409C12.1871 48.9162 11.8495 49.4742 11.6467 50.0785C11.4438 50.6829 11.3801 51.3201 11.4598 51.9488C11.5395 52.5775 11.7607 53.1836 12.1091 53.7278C13.5064 56.0825 16.8193 57.2489 19.5512 57.6134C22.6128 58.029 29.0344 56.3012 29.5447 56.1554C30.6151 59.573 31.9263 62.9216 33.4698 66.1794C34.3569 68.0748 35.3068 69.9703 36.2881 71.8512C35.7072 71.0492 35.1734 70.3421 35.087 70.2546C32.6926 67.6739 26.4516 64.0142 22.6521 65.5014C22.0325 65.7653 21.4796 66.1473 21.0293 66.6226C20.5791 67.0979 20.2416 67.6559 20.0387 68.2603C19.8358 68.8646 19.7722 69.5019 19.8518 70.1306C19.9315 70.7593 20.1527 71.3654 20.5011 71.9095C21.8984 74.2715 25.2113 75.4306 27.9432 75.8024C30.6751 76.1742 36.2018 74.7964 37.6619 74.4173C38.0466 75.1463 38.4469 75.8754 38.8081 76.6044C40.6686 80.0453 42.5448 83.4717 44.3033 86.8835C44.9078 88.0864 45.4651 89.2966 46.0225 90.5286C45.4966 89.7996 45.0491 89.231 44.9784 89.1435C42.5762 86.5701 36.3431 82.9104 32.5356 84.3976C31.916 84.6615 31.3631 85.0435 30.9129 85.5188C30.4626 85.9941 30.1251 86.5521 29.9223 87.1564C29.7194 87.7608 29.6557 88.398 29.7354 89.0267C29.8151 89.6554 30.0363 90.2615 30.3847 90.8056C31.782 93.1604 35.0949 94.3268 37.8346 94.6913C40.5744 95.0558 45.5515 93.8238 47.255 93.3791C47.781 94.6257 48.3148 95.8796 48.7701 97.1117C49.0606 97.9573 49.3982 98.752 49.6415 99.6195C49.8849 100.487 50.1518 101.318 50.4266 102.156C50.8505 103.789 51.2901 105.466 51.6591 107.063C51.926 108.171 52.1536 109.25 52.3891 110.3C51.8004 109.097 50.5836 106.764 50.458 106.582C48.5111 103.702 42.9216 99.1967 38.9415 100.137C38.2891 100.314 37.684 100.616 37.1651 101.024C36.6463 101.431 36.2253 101.936 35.9294 102.504C35.6334 103.072 35.4691 103.692 35.4471 104.322C35.4251 104.953 35.5457 105.581 35.8014 106.166C36.7984 108.696 39.9071 110.314 42.5291 111.058C45.4102 111.882 51.7847 111.131 52.5854 111.058C52.9701 112.822 53.3233 114.55 53.6295 116.161C54.6893 121.767 55.3487 126.477 55.7648 129.801H58.5438C58.5438 129.721 58.5438 129.655 58.5438 129.575C58.0492 126.221 57.2642 121.439 56.0474 115.724C55.6706 113.923 55.2231 112.013 54.7442 110.044C56.6664 109.333 58.5407 108.515 60.3572 107.595C62.4533 109.709 67.8386 112.18 68.5373 112.494C67.7994 114.171 67.0693 115.789 66.3549 117.305C63.9134 122.525 61.6447 126.783 60.0746 129.779H63.1284C64.6357 126.819 66.5668 122.875 68.6236 118.188C69.4087 116.489 70.1387 114.666 70.9081 112.786C71.6931 112.931 77.9734 114.127 80.9408 113.515C83.6099 112.953 86.8443 111.554 88.0061 109.097C88.3091 108.53 88.48 107.91 88.5076 107.278C88.5352 106.646 88.4189 106.016 88.1662 105.428C87.9136 104.841 87.5303 104.309 87.0414 103.868C86.5526 103.428 85.9691 103.088 85.3291 102.871C81.404 101.653 75.5005 105.787 73.326 108.492C73.1925 108.659 72.015 110.555 71.2849 111.765C71.5989 110.992 71.9051 110.249 72.2112 109.447C72.8393 107.879 73.4045 106.29 74.0247 104.591L74.8097 102.069C75.1002 101.231 75.2886 100.312 75.5398 99.4299C76.0658 97.3668 76.4975 95.2527 76.8743 93.1094C78.358 93.6124 83.6492 95.2964 86.3968 95.1433C89.1444 94.9902 92.5515 94.0352 94.1294 91.7825C94.5245 91.2633 94.7969 90.6723 94.9289 90.0485C95.0609 89.4246 95.0494 88.7818 94.8953 88.1623C94.7411 87.5429 94.4477 86.9606 94.0343 86.4538C93.6209 85.947 93.0969 85.527 92.4965 85.2214C88.8539 83.4717 82.2911 86.6794 79.7162 89.0925C79.5513 89.2455 77.8949 91.1629 77.0078 92.2272C77.2276 90.9442 77.4553 89.6611 77.628 88.3489C78.1304 84.5725 78.5151 80.7306 78.9154 76.9033C79.041 75.7295 79.1823 74.5631 79.3079 73.3967C79.8339 73.5789 86.0828 75.7368 89.1523 75.54C91.8842 75.3577 95.3069 74.4319 96.8927 72.1719C97.289 71.653 97.5625 71.0621 97.6952 70.438C97.8279 69.8139 97.8167 69.1707 97.6624 68.5509C97.5082 67.9311 97.2143 67.3486 96.8002 66.8419C96.3861 66.3351 95.8611 65.9155 95.2598 65.6108C91.6094 63.8611 85.0544 67.0688 82.4795 69.4818C82.2832 69.6641 79.9046 72.3979 79.3393 73.1269C79.6376 70.5462 79.9517 68.0238 80.3756 65.4722C80.9259 62.0727 81.7126 58.7097 82.7307 55.4045C82.974 55.492 89.482 57.7738 92.6221 57.5916C95.354 57.4166 98.7768 56.4834 100.363 54.2308C100.758 53.7115 101.03 53.1206 101.162 52.4967C101.294 51.8728 101.283 51.2301 101.128 50.6106C100.974 49.9911 100.681 49.4089 100.267 48.902C99.8541 48.3952 99.33 47.9752 98.7297 47.6696C95.0793 45.92 88.5242 49.1276 85.9493 51.5407C85.7766 51.7011 83.9632 53.8007 83.1232 54.8213L82.9191 54.7192C84.02 51.4425 85.4335 48.2636 87.1426 45.2201C88.0768 43.5288 89.0738 41.9541 90.0786 40.445C91.2404 40.9845 96.5944 43.3611 99.444 43.5069C102.294 43.6527 105.724 43.0258 107.538 40.9481C107.987 40.4726 108.324 39.9147 108.526 39.3105C108.729 38.7063 108.792 38.0694 108.712 37.4411C108.632 36.8127 108.411 36.207 108.062 35.6633C107.714 35.1195 107.246 34.6499 106.69 34.2848C103.267 32.178 96.3903 34.7077 93.5249 36.8291C93.3679 36.9457 91.9548 38.2871 90.8872 39.2713C91.3503 38.5933 91.8135 37.8862 92.2767 37.2519C93.9881 34.8462 95.723 32.7466 97.2695 30.9022C98.1644 29.8597 98.9887 28.9265 99.7738 28.0663C101.21 28.0663 107.02 27.8767 109.563 26.7759C112.107 25.6751 114.87 23.6776 115.467 21.0458C115.63 20.4328 115.654 19.7947 115.535 19.1728C115.417 18.5508 115.159 17.9589 114.779 17.4353C114.398 16.9117 113.904 16.468 113.327 16.133C112.751 15.7981 112.105 15.5793 111.432 15.4907Z" fill="#2C7250"/>
<path d="M365.829 304.656C362.838 303.57 355.624 303.978 355.624 303.978C355.624 303.978 357.351 308.294 357.5 308.556C359.203 311.567 364.408 316.459 368.451 315.803C369.119 315.676 369.751 315.42 370.305 315.052C370.86 314.684 371.325 314.212 371.671 313.666C372.016 313.12 372.235 312.513 372.312 311.884C372.389 311.255 372.322 310.618 372.117 310.014C371.324 307.426 368.365 305.589 365.829 304.656Z" fill="#2C7250"/>
<path d="M292.954 305.764C292.884 305.727 291.824 310.247 291.793 310.546C291.424 313.929 292.86 320.672 296.621 322.211C297.25 322.449 297.927 322.562 298.606 322.542C299.286 322.522 299.954 322.37 300.566 322.095C301.178 321.82 301.721 321.429 302.16 320.946C302.599 320.464 302.923 319.901 303.113 319.294C304 316.728 302.618 313.674 301.04 311.596C299.195 309.117 292.954 305.764 292.954 305.764Z" fill="#2C7250"/>
<path d="M272.465 330.755C276.555 331.017 281.187 325.652 282.553 322.495C282.671 322.225 283.982 317.756 283.903 317.756H283.817C284.555 316.918 285.34 316.007 286.172 314.993C287.687 313.12 289.39 310.991 291.07 308.549C292.914 305.942 294.592 303.238 296.095 300.449C297.791 297.333 299.186 294.084 300.263 290.739C300.268 290.698 300.268 290.656 300.263 290.615C300.263 291.738 300.475 294.85 300.514 295.091C301.127 298.445 304.439 304.568 308.49 305.144C309.167 305.219 309.853 305.161 310.503 304.972C311.154 304.784 311.755 304.471 312.266 304.053C312.777 303.634 313.187 303.12 313.47 302.545C313.753 301.969 313.902 301.345 313.907 300.712C314.04 298.022 311.835 295.412 309.723 293.793C307.368 291.971 300.883 290.345 300.373 290.221C301.376 286.792 302.134 283.304 302.642 279.782C302.948 277.726 303.191 275.655 303.427 273.57C303.482 274.533 303.545 275.393 303.56 275.517C304.173 278.87 307.485 284.994 311.536 285.57C312.213 285.645 312.899 285.586 313.549 285.398C314.2 285.21 314.8 284.897 315.312 284.478C315.823 284.06 316.233 283.546 316.516 282.971C316.799 282.395 316.948 281.77 316.953 281.138C317.086 278.448 314.88 275.838 312.769 274.219C310.657 272.601 305.154 271.092 303.694 270.72C303.772 269.918 303.851 269.116 303.921 268.321C304.259 264.48 304.573 260.645 305.005 256.898C305.162 255.578 305.358 254.281 305.562 252.983C305.609 253.836 305.656 254.558 305.68 254.667C306.284 258.02 309.605 264.144 313.648 264.727C314.325 264.801 315.012 264.742 315.663 264.553C316.314 264.364 316.915 264.05 317.426 263.631C317.938 263.212 318.349 262.698 318.633 262.122C318.916 261.546 319.066 260.921 319.073 260.288C319.198 257.598 316.992 254.995 314.888 253.369C312.784 251.744 307.823 250.388 306.072 249.936C306.316 248.616 306.559 247.289 306.857 246.013C307.085 245.153 307.234 244.308 307.517 243.447C307.799 242.587 308.027 241.749 308.302 240.918C308.851 239.321 309.409 237.674 309.99 236.128C310.382 235.056 310.775 234.036 311.175 233.008C311.01 234.32 310.735 236.901 310.743 237.119C310.912 240.108 311.901 243.006 313.617 245.54C313.622 245.875 313.658 246.209 313.726 246.538C313.832 247.166 314.08 247.766 314.453 248.299C314.826 248.832 315.317 249.285 315.892 249.63C316.467 249.974 317.115 250.201 317.791 250.297C318.468 250.392 319.159 250.354 319.818 250.183C323.743 249.068 325.989 242.514 326.036 239.117C326.036 238.913 325.808 236.733 325.635 235.355C325.871 236.15 326.083 236.923 326.334 237.739C326.821 239.35 327.355 240.947 327.904 242.667C328.21 243.491 328.516 244.315 328.823 245.153C329.129 245.992 329.537 246.845 329.89 247.698C330.754 249.659 331.735 251.605 332.771 253.53C331.248 253.923 325.871 255.403 323.759 257.036C321.647 258.669 319.457 261.265 319.583 263.955C319.591 264.587 319.743 265.211 320.028 265.786C320.313 266.361 320.725 266.874 321.237 267.291C321.75 267.708 322.351 268.021 323.002 268.209C323.652 268.396 324.339 268.454 325.015 268.38C329.074 267.826 332.363 261.673 332.968 258.312C332.968 258.108 333.148 255.651 333.195 254.302C333.831 255.469 334.451 256.628 335.134 257.787C337.097 261.133 339.193 264.458 341.273 267.789C341.909 268.803 342.529 269.831 343.157 270.851C342.616 270.982 336.178 272.615 333.815 274.438C331.704 276.064 329.506 278.674 329.639 281.364C329.646 281.997 329.797 282.621 330.082 283.197C330.366 283.772 330.779 284.285 331.291 284.703C331.804 285.12 332.405 285.433 333.057 285.62C333.708 285.807 334.395 285.865 335.072 285.789C339.13 285.235 342.419 279.074 343.024 275.721C343.071 275.466 343.267 271.937 343.267 271.033C344.649 273.286 345.999 275.539 347.232 277.813C348.921 280.879 350.389 284.045 351.628 287.291C351.377 287.356 344.657 289.026 342.207 290.892C340.104 292.518 337.905 295.127 338.039 297.818C338.046 298.45 338.197 299.074 338.481 299.649C338.765 300.224 339.177 300.736 339.688 301.154C340.2 301.571 340.801 301.884 341.451 302.072C342.102 302.259 342.787 302.317 343.464 302.243C347.53 301.689 350.819 295.528 351.416 292.175C351.455 291.956 351.612 289.259 351.651 287.983H351.887C353.043 291.273 353.881 294.652 354.391 298.08C354.697 299.961 354.878 301.776 355.004 303.548C353.724 303.737 347.852 304.678 345.473 306.136C343.095 307.594 340.692 309.905 340.504 312.587C340.437 313.218 340.513 313.854 340.728 314.455C340.943 315.056 341.292 315.608 341.751 316.075C342.211 316.543 342.772 316.915 343.397 317.169C344.022 317.422 344.697 317.55 345.379 317.545C349.477 317.406 353.481 311.625 354.478 308.345C354.525 308.17 354.862 306.303 355.09 304.94C355.129 305.742 355.2 306.566 355.223 307.331C355.341 310.211 355.223 312.857 355.153 315.197C355.082 316.524 354.996 317.727 354.901 318.842C353.74 319.644 349.124 322.925 347.758 325.192C346.392 327.459 345.403 330.587 346.557 333.051C346.81 333.638 347.193 334.17 347.682 334.61C348.171 335.051 348.754 335.391 349.394 335.609C350.033 335.827 350.715 335.918 351.395 335.875C352.075 335.833 352.737 335.658 353.339 335.362C356.911 333.481 357.586 326.614 356.848 323.304C356.786 323.02 355.223 318.616 355.168 318.66C355.143 318.674 355.119 318.691 355.098 318.711C355.215 317.632 355.325 316.473 355.42 315.205C355.569 312.857 355.718 310.211 355.671 307.317C355.662 304.198 355.455 301.082 355.051 297.985C354.613 294.528 353.848 291.112 352.766 287.779L352.719 287.662C353.402 288.581 355.404 291.089 355.584 291.264C358.089 293.75 364.495 297.191 368.208 295.565C368.816 295.28 369.353 294.879 369.783 294.389C370.213 293.898 370.527 293.329 370.705 292.718C370.883 292.108 370.92 291.469 370.814 290.844C370.709 290.219 370.463 289.622 370.092 289.091C368.6 286.78 365.217 285.738 362.493 285.446C359.423 285.14 353.072 287.094 352.57 287.254C351.386 283.862 349.959 280.547 348.299 277.332C347.342 275.459 346.305 273.607 345.246 271.762C345.866 272.535 346.423 273.22 346.517 273.315C349.022 275.801 355.427 279.242 359.141 277.616C359.749 277.331 360.285 276.931 360.716 276.44C361.146 275.95 361.46 275.381 361.638 274.77C361.816 274.159 361.853 273.521 361.747 272.896C361.642 272.271 361.395 271.673 361.025 271.143C359.533 268.832 356.15 267.789 353.426 267.498C350.702 267.206 345.214 268.788 343.778 269.218C343.361 268.489 342.992 267.811 342.537 267.104C340.535 263.736 338.526 260.375 336.657 257.022C335.998 255.841 335.401 254.66 334.797 253.479C335.346 254.164 335.817 254.74 335.896 254.82C338.4 257.306 344.806 260.747 348.519 259.129C349.128 258.843 349.664 258.441 350.095 257.95C350.525 257.459 350.839 256.889 351.017 256.278C351.195 255.667 351.232 255.028 351.126 254.402C351.02 253.777 350.774 253.179 350.403 252.648C348.912 250.337 345.528 249.294 342.804 249.002C340.08 248.711 335.126 250.147 333.384 250.65C332.803 249.425 332.214 248.193 331.712 247.005C331.39 246.167 331.013 245.379 330.738 244.526L329.875 242.018C329.388 240.407 328.87 238.745 328.438 237.163C328.132 236.062 327.857 234.976 327.582 233.948C328.218 235.129 329.521 237.418 329.655 237.593C331.727 240.4 337.505 244.701 341.43 243.622C342.078 243.425 342.674 243.104 343.179 242.679C343.684 242.255 344.088 241.736 344.363 241.157C344.639 240.578 344.78 239.952 344.778 239.319C344.775 238.687 344.63 238.061 344.351 237.484C343.259 234.998 340.08 233.482 337.434 232.833C334.522 232.104 328.179 233.095 327.386 233.219C326.931 231.462 326.507 229.749 326.13 228.116C324.843 222.554 323.987 217.866 323.437 214.564L320.658 214.666C320.658 214.739 320.658 214.804 320.698 214.884C321.333 218.216 322.307 222.969 323.759 228.612C324.214 230.398 324.74 232.301 325.329 234.24C323.445 235.024 321.61 235.908 319.834 236.886C317.652 234.852 312.172 232.57 311.466 232.286C312.125 230.587 312.792 228.94 313.444 227.402C315.665 222.094 317.738 217.749 319.237 214.717L316.191 214.826C314.802 217.83 313.051 221.839 311.167 226.6C310.484 228.32 309.793 230.172 309.103 232.082C308.318 231.958 301.967 230.988 299.046 231.71C296.409 232.366 293.229 233.897 292.138 236.376C291.859 236.954 291.714 237.579 291.713 238.212C291.712 238.846 291.855 239.472 292.132 240.05C292.409 240.629 292.814 241.146 293.321 241.57C293.828 241.993 294.425 242.312 295.074 242.507C298.999 243.579 304.777 239.27 306.85 236.456C306.975 236.296 308.074 234.356 308.749 233.124C308.475 233.904 308.192 234.655 307.917 235.465C307.36 237.054 306.857 238.665 306.308 240.385C306.072 241.224 305.837 242.077 305.601 242.937C305.366 243.797 305.193 244.709 304.981 245.598C304.534 247.676 304.196 249.804 303.906 251.955C302.398 251.51 297.037 249.987 294.305 250.264C291.573 250.541 288.197 251.59 286.713 253.909C286.345 254.441 286.1 255.039 285.996 255.664C285.892 256.289 285.931 256.928 286.111 257.539C286.29 258.149 286.605 258.718 287.036 259.208C287.467 259.698 288.005 260.098 288.613 260.382C292.326 262.001 298.732 258.545 301.229 256.059C301.386 255.899 302.956 253.931 303.804 252.83C303.639 254.12 303.466 255.411 303.34 256.73C302.995 260.521 302.767 264.37 302.555 268.212C302.485 269.386 302.391 270.56 302.304 271.733C301.778 271.566 295.443 269.626 292.381 269.94C289.665 270.21 286.282 271.267 284.79 273.585C284.421 274.117 284.177 274.715 284.073 275.34C283.969 275.966 284.008 276.604 284.187 277.215C284.366 277.825 284.682 278.394 285.113 278.884C285.544 279.374 286.081 279.774 286.69 280.059C290.403 281.67 296.809 278.222 299.305 275.736C299.494 275.546 301.755 272.703 302.296 271.952C302.108 274.533 301.896 277.106 301.574 279.636C301.158 283.052 300.505 286.439 299.619 289.776C299.376 289.696 292.782 287.648 289.642 287.969C286.925 288.238 283.534 289.295 282.05 291.614C281.681 292.146 281.437 292.745 281.333 293.371C281.229 293.997 281.268 294.636 281.447 295.247C281.626 295.858 281.941 296.427 282.373 296.918C282.804 297.408 283.341 297.809 283.95 298.095C287.663 299.706 294.069 296.257 296.566 293.764C296.73 293.604 298.45 291.439 299.25 290.389L299.462 290.484C298.468 293.82 297.155 297.068 295.537 300.187C294.674 301.915 293.747 303.518 292.805 305.064C291.62 304.568 286.164 302.345 283.314 302.337C280.465 302.33 277.089 303.067 275.338 305.181C274.907 305.671 274.591 306.24 274.413 306.851C274.234 307.462 274.197 308.102 274.303 308.727C274.409 309.353 274.656 309.951 275.028 310.481C275.4 311.012 275.888 311.464 276.461 311.807C279.962 313.79 286.729 311.02 289.508 308.797C289.657 308.673 291.078 307.288 292.044 306.267C291.604 306.959 291.172 307.681 290.733 308.337C289.163 310.794 287.475 312.952 286.023 314.855C285.175 315.934 284.382 316.889 283.668 317.771C282.231 317.844 276.43 318.216 273.941 319.411C271.452 320.607 268.76 322.692 268.273 325.338C268.133 325.952 268.133 326.587 268.272 327.201C268.411 327.815 268.687 328.396 269.081 328.906C269.476 329.416 269.98 329.843 270.563 330.162C271.146 330.48 271.794 330.682 272.465 330.755Z" fill="#2C7250"/>
<g opacity="0.2">
<path opacity="0.2" d="M282.56 11.0874C282.56 11.0874 282.144 11.0874 281.391 11.0874" stroke="black" stroke-linecap="round" stroke-linejoin="round"/>
<path opacity="0.2" d="M279.036 11.1459C270.455 11.5906 248.215 14.667 234.736 34.0152C219.625 55.7108 228.998 93.3428 228.001 117.677C226.706 149.237 219.24 185.338 189.024 204.27C155.307 225.412 110.607 220.987 73.522 233.898C24.1513 251.088 16.4344 296.192 32.6375 319.113C61.5346 360.011 124.533 332.964 150.565 304.999C161.925 292.788 171.031 277.442 184.447 267.09C195.987 258.189 210.966 254.135 225.481 251.78C262.574 245.73 302.155 239.62 335.715 222.911C370.484 205.604 378.437 167.921 363.71 135.728C349.084 103.775 315.038 82.5095 279.476 74.8475C201.019 57.8979 176.715 82.8011 136.749 39.2787" stroke="black" stroke-linecap="round" stroke-linejoin="round" stroke-dasharray="3 3"/>
<path opacity="0.2" d="M135.987 38.4326L135.202 37.5942" stroke="black" stroke-linecap="round" stroke-linejoin="round"/>
</g>
<path opacity="0.2" d="M90.0549 305.348C90.0395 304.316 89.6535 303.318 88.9582 302.512C88.2628 301.707 87.2979 301.14 86.2163 300.901C85.1347 300.663 83.9983 300.766 82.9872 301.196C81.9761 301.625 81.1481 302.355 80.6345 303.271C80.1209 302.355 79.293 301.625 78.2819 301.196C77.2708 300.766 76.1344 300.663 75.0527 300.901C73.9711 301.14 73.0062 301.707 72.3108 302.512C71.6155 303.318 71.2295 304.316 71.2141 305.348C71.2141 307.718 73.161 310.131 75.0922 311.53C76.855 312.749 78.6896 313.876 80.5874 314.906C82.4875 313.88 84.3223 312.753 86.0826 311.53C87.9275 310.204 90.0549 307.608 90.0549 305.348Z" stroke="black" stroke-linecap="round" stroke-linejoin="round"/>
<path opacity="0.2" d="M68.6467 318.755C68.6448 317.386 68.1456 316.057 67.23 314.983C66.3144 313.91 65.0357 313.155 63.6007 312.839C62.1657 312.524 60.6581 312.667 59.3216 313.246C57.9851 313.825 56.8978 314.805 56.2354 316.028C55.5729 314.805 54.4856 313.825 53.1491 313.246C51.8126 312.667 50.305 312.524 48.87 312.839C47.435 313.155 46.1563 313.91 45.2407 314.983C44.3251 316.057 43.8259 317.386 43.824 318.755C43.824 321.868 46.3753 325.025 48.911 326.869C50.1827 327.795 55.9763 331.396 56.1568 331.294C56.3217 331.396 62.1231 327.795 63.3949 326.869C65.7971 325.119 68.6467 321.722 68.6467 318.755Z" stroke="black" stroke-linecap="round" stroke-linejoin="round"/>
<path opacity="0.2" d="M253.004 324.485C252.999 323.116 252.497 321.788 251.578 320.717C250.659 319.646 249.378 318.895 247.942 318.584C246.505 318.274 244.998 318.423 243.665 319.007C242.331 319.591 241.249 320.576 240.593 321.802C239.936 320.573 238.85 319.586 237.512 319.003C236.175 318.419 234.664 318.273 233.225 318.589C231.787 318.904 230.506 319.661 229.59 320.739C228.674 321.816 228.178 323.149 228.182 324.522C228.182 327.635 230.741 330.791 233.277 332.636C234.548 333.561 240.342 337.163 240.515 337.061C240.687 337.163 246.481 333.561 247.753 332.636C250.163 330.849 253.004 327.452 253.004 324.485Z" stroke="black" stroke-linecap="round" stroke-linejoin="round"/>
<path opacity="0.2" d="M339.248 21.6362C339.25 20.712 338.916 19.8142 338.299 19.0886C337.683 18.363 336.82 17.8523 335.852 17.6395C334.883 17.4267 333.866 17.5242 332.964 17.9163C332.063 18.3083 331.331 18.9719 330.887 19.7991C330.441 18.9759 329.709 18.3164 328.809 17.9272C327.91 17.5381 326.895 17.4419 325.93 17.6543C324.964 17.8667 324.103 18.3752 323.487 19.0978C322.871 19.8203 322.536 20.7146 322.534 21.6362C322.534 23.7285 324.254 25.8573 325.965 27.0966C327.529 28.1708 329.153 29.1661 330.832 30.0783C332.515 29.1681 334.142 28.1727 335.707 27.0966C337.324 25.9156 339.248 23.6337 339.248 21.6362Z" stroke="black" stroke-linecap="round" stroke-linejoin="round"/>
<path opacity="0.2" d="M32.9751 306.741C32.9815 305.815 32.6498 304.915 32.0343 304.188C31.4187 303.46 30.5557 302.948 29.5861 302.735C28.6166 302.521 27.5978 302.62 26.6962 303.014C25.7946 303.408 25.0635 304.074 24.6223 304.903C24.1784 304.076 23.4464 303.413 22.5451 303.021C21.6438 302.629 20.6262 302.531 19.6577 302.744C18.6892 302.957 17.8266 303.467 17.2101 304.193C16.5936 304.919 16.2594 305.816 16.2617 306.741C16.2617 308.833 17.9888 310.954 19.6923 312.201C21.2551 313.278 22.8827 314.271 24.5674 315.175C26.252 314.271 27.8797 313.278 29.4424 312.201C31.091 311.02 32.9751 308.731 32.9751 306.741Z" stroke="black" stroke-linecap="round" stroke-linejoin="round"/>
<path opacity="0.2" d="M224.39 315.088C224.392 314.164 224.058 313.266 223.441 312.54C222.825 311.815 221.962 311.304 220.994 311.091C220.025 310.879 219.008 310.976 218.106 311.368C217.205 311.76 216.473 312.424 216.029 313.251C215.583 312.428 214.851 311.768 213.951 311.379C213.052 310.99 212.037 310.894 211.071 311.106C210.106 311.319 209.245 311.827 208.629 312.55C208.013 313.272 207.677 314.167 207.676 315.088C207.676 317.18 209.395 319.309 211.107 320.548C212.671 321.623 214.295 322.618 215.974 323.53C217.657 322.62 219.284 321.625 220.849 320.548C222.474 319.375 224.39 317.086 224.39 315.088Z" stroke="black" stroke-linecap="round" stroke-linejoin="round"/>
<path opacity="0.2" d="M197.707 25.4197C197.713 24.4944 197.381 23.5944 196.766 22.8668C196.15 22.1392 195.287 21.6269 194.318 21.4137C193.348 21.2004 192.329 21.2988 191.428 21.6927C190.526 22.0867 189.795 22.7529 189.354 23.5825C188.913 22.7529 188.182 22.0867 187.28 21.6927C186.378 21.2988 185.36 21.2004 184.39 21.4137C183.42 21.6269 182.557 22.1392 181.942 22.8668C181.326 23.5944 180.995 24.4944 181.001 25.4197C181.001 27.512 182.72 29.6334 184.424 30.88C185.991 31.946 187.619 32.934 189.299 33.8398C190.982 32.9327 192.609 31.9397 194.174 30.8654C195.791 29.699 197.707 27.4099 197.707 25.4197Z" stroke="black" stroke-linecap="round" stroke-linejoin="round"/>
<path opacity="0.2" d="M142.542 23.0649C142.547 22.1402 142.214 21.2414 141.598 20.5151C140.982 19.7887 140.119 19.2777 139.149 19.0654C138.18 18.8531 137.162 18.9521 136.262 19.3461C135.361 19.7401 134.63 20.406 134.189 21.235C133.746 20.4084 133.014 19.7452 132.114 19.353C131.213 18.9609 130.197 18.8628 129.229 19.0746C128.261 19.2865 127.398 19.7959 126.781 20.5202C126.164 21.2446 125.828 22.1413 125.829 23.0649C125.829 25.1572 127.556 27.2859 129.259 28.5252C130.822 29.6039 132.45 30.5994 134.135 31.5069C135.819 30.5994 137.447 29.6039 139.01 28.5252C140.627 27.3515 142.542 25.0916 142.542 23.0649Z" stroke="black" stroke-linecap="round" stroke-linejoin="round"/>
<path opacity="0.2" d="M313.287 8.06195C313.29 6.61964 312.769 5.2186 311.806 4.08644C310.844 2.95429 309.498 2.15754 307.986 1.82564C306.475 1.49374 304.887 1.64618 303.481 2.25821C302.074 2.87024 300.932 3.90589 300.24 5.19691C299.547 3.90589 298.405 2.87024 296.999 2.25821C295.592 1.64618 294.004 1.49374 292.493 1.82564C290.981 2.15754 289.635 2.95429 288.673 4.08644C287.711 5.2186 287.189 6.61964 287.192 8.06195C287.192 11.328 289.877 14.6231 292.546 16.5915C293.881 17.5611 299.973 21.3447 300.153 21.2426C300.334 21.3447 306.434 17.5975 307.768 16.5915C310.296 14.7543 313.287 11.1822 313.287 8.06195Z" stroke="black" stroke-linecap="round" stroke-linejoin="round"/>
<path d="M339.083 295.237L221.736 298.401C218.715 298.481 215.784 297.445 213.586 295.518C211.388 293.592 210.104 290.934 210.016 288.129L202.73 55.3315C202.687 53.9419 202.938 52.5578 203.47 51.2583C204.002 49.9589 204.805 48.7695 205.832 47.7581C206.859 46.7467 208.091 45.9331 209.456 45.3638C210.822 44.7944 212.295 44.4805 213.792 44.44L331.138 41.276C332.635 41.2342 334.126 41.4669 335.526 41.9607C336.925 42.4545 338.207 43.1997 339.296 44.1538C340.385 45.1078 341.261 46.2519 341.874 47.5207C342.487 48.7895 342.824 50.1579 342.867 51.5479L350.128 284.345C350.215 287.149 349.101 289.87 347.03 291.912C344.96 293.954 342.102 295.149 339.083 295.237Z" fill="#263238" stroke="#263238" stroke-linecap="round" stroke-linejoin="round"/>
<path d="M333.642 295.237L216.311 298.401C214.815 298.442 213.325 298.208 211.925 297.714C210.526 297.22 209.245 296.475 208.156 295.521C207.067 294.567 206.191 293.423 205.578 292.155C204.965 290.887 204.627 289.519 204.583 288.129L197.298 55.3315C197.211 52.5243 198.329 49.8001 200.404 47.7577C202.48 45.7153 205.344 44.5219 208.367 44.44L325.714 41.276C327.21 41.2352 328.7 41.4686 330.099 41.9629C331.497 42.4571 332.778 43.2025 333.866 44.1564C334.955 45.1104 335.83 46.2542 336.442 47.5225C337.054 48.7907 337.391 50.1586 337.434 51.5479L344.719 284.345C344.764 285.737 344.513 287.122 343.98 288.423C343.448 289.724 342.644 290.914 341.615 291.926C340.586 292.938 339.352 293.751 337.984 294.319C336.616 294.887 335.141 295.199 333.642 295.237Z" fill="white" stroke="#263238" stroke-miterlimit="10"/>
<path d="M278.981 288.443C278.952 287.568 278.645 286.721 278.099 286.008C277.552 285.295 276.79 284.749 275.909 284.439C275.028 284.128 274.068 284.067 273.15 284.263C272.231 284.459 271.396 284.904 270.75 285.541C270.104 286.178 269.675 286.978 269.519 287.841C269.362 288.704 269.485 289.59 269.871 290.389C270.257 291.187 270.889 291.861 271.688 292.326C272.486 292.79 273.415 293.024 274.357 292.999C274.983 292.982 275.599 292.851 276.17 292.612C276.741 292.374 277.256 292.034 277.686 291.611C278.115 291.187 278.45 290.69 278.673 290.146C278.895 289.603 279 289.024 278.981 288.443V288.443Z" stroke="white" stroke-linecap="round" stroke-linejoin="round"/>
<path d="M331.404 58.4051L203.733 61.8411L210.65 283.486L338.321 280.05L331.404 58.4051Z" fill="white" stroke="#263238" stroke-linecap="round" stroke-linejoin="round"/>
<path d="M327.133 60.8202L316.548 61.1051L316.716 66.4976L327.302 66.2127L327.133 60.8202Z" stroke="#263238" stroke-width="0.821067" stroke-linecap="round" stroke-linejoin="round"/>
<path d="M324.804 60.8829L316.549 61.1051L316.717 66.4976L324.972 66.2754L324.804 60.8829Z" fill="#263238" stroke="#263238" stroke-width="0.725073" stroke-linecap="round" stroke-linejoin="round"/>
<path d="M328.651 62.2893L327.16 62.3295L327.234 64.7051L328.725 64.6649L328.651 62.2893Z" fill="#263238" stroke="#263238" stroke-width="0.725073" stroke-linecap="round" stroke-linejoin="round"/>
<path d="M208.674 65.6757L206.735 65.7279L206.832 68.8176L208.77 68.7655L208.674 65.6757Z" fill="#263238" stroke="#263238" stroke-width="0.883086" stroke-linecap="round" stroke-linejoin="round"/>
<path d="M211.696 64.4871L209.758 64.5396L209.889 68.7151L211.827 68.6626L211.696 64.4871Z" fill="#263238" stroke="#263238" stroke-width="0.883086" stroke-linecap="round" stroke-linejoin="round"/>
<path d="M214.705 63.1229L212.767 63.1754L212.938 68.6334L214.877 68.581L214.705 63.1229Z" fill="#263238" stroke="#263238" stroke-width="0.883086" stroke-linecap="round" stroke-linejoin="round"/>
<path d="M161.555 299.786L44.3421 293.714C42.8472 293.636 41.3833 293.286 40.0341 292.684C38.6849 292.081 37.4768 291.237 36.4787 290.201C35.4807 289.164 34.7124 287.955 34.2176 286.643C33.7228 285.331 33.5112 283.941 33.595 282.552L47.5686 49.9954C47.7427 47.1969 49.1051 44.5768 51.3568 42.7099C53.6085 40.843 56.5657 39.8818 59.5796 40.037L176.801 46.1097C179.819 46.2678 182.647 47.5321 184.662 49.6249C186.677 51.7177 187.715 54.4678 187.548 57.271L173.574 289.828C173.398 292.627 172.034 295.247 169.781 297.114C167.528 298.981 164.57 299.942 161.555 299.786Z" fill="#263238" stroke="#263238" stroke-linecap="round" stroke-linejoin="round"/>
<path d="M165.551 299.786L48.338 293.713C46.843 293.636 45.3792 293.286 44.0299 292.683C42.6807 292.08 41.4726 291.237 40.4746 290.2C39.4766 289.164 38.7082 287.955 38.2134 286.642C37.7186 285.33 37.5071 283.94 37.5909 282.552L51.5645 49.995C51.7406 47.1945 53.1057 44.5733 55.3604 42.7063C57.6151 40.8394 60.5751 39.8793 63.5912 40.0366L180.797 46.1093C183.816 46.2655 186.646 47.529 188.663 49.622C190.679 51.715 191.719 54.4662 191.552 57.2706L177.578 289.828C177.404 292.629 176.039 295.251 173.784 297.118C171.529 298.986 168.568 299.945 165.551 299.786Z" fill="white" stroke="#263238" stroke-miterlimit="10"/>
<path d="M111.69 288.72C111.743 287.846 111.516 286.977 111.037 286.223C110.558 285.469 109.849 284.864 109 284.484C108.151 284.105 107.199 283.967 106.266 284.09C105.333 284.212 104.46 284.589 103.757 285.172C103.054 285.755 102.554 286.519 102.318 287.366C102.083 288.214 102.123 289.107 102.435 289.933C102.746 290.759 103.314 291.481 104.067 292.007C104.821 292.534 105.725 292.841 106.666 292.89C107.928 292.955 109.166 292.553 110.108 291.771C111.05 290.989 111.619 289.891 111.69 288.72V288.72Z" stroke="white" stroke-linecap="round" stroke-linejoin="round"/>
<path d="M184.922 63.5961L57.3948 56.9957L44.1076 278.391L171.635 284.991L184.922 63.5961Z" fill="#FAFAFA" stroke="#263238" stroke-linecap="round" stroke-linejoin="round"/>
<path d="M180.45 65.6632L169.876 65.116L169.553 70.5023L180.127 71.0496L180.45 65.6632Z" stroke="#263238" stroke-width="0.821067" stroke-linecap="round" stroke-linejoin="round"/>
<path d="M178.118 65.5499L169.872 65.1232L169.549 70.5096L177.795 70.9363L178.118 65.5499Z" fill="#263238" stroke="#263238" stroke-width="0.725073" stroke-linecap="round" stroke-linejoin="round"/>
<path d="M181.822 67.252L180.333 67.1749L180.191 69.5478L181.68 69.6249L181.822 67.252Z" fill="#263238" stroke="#263238" stroke-width="0.725073" stroke-linecap="round" stroke-linejoin="round"/>
<path d="M61.9629 61.2121L60.0269 61.1119L59.8416 64.1982L61.7777 64.2984L61.9629 61.2121Z" fill="#263238" stroke="#263238" stroke-width="0.883086" stroke-linecap="round" stroke-linejoin="round"/>
<path d="M65.0671 60.2865L63.1311 60.1863L62.8808 64.3571L64.8168 64.4573L65.0671 60.2865Z" fill="#263238" stroke="#263238" stroke-width="0.883086" stroke-linecap="round" stroke-linejoin="round"/>
<path d="M68.1848 59.1684L66.2488 59.0679L65.9206 64.5197L67.8566 64.6202L68.1848 59.1684Z" fill="#263238" stroke="#263238" stroke-width="0.883086" stroke-linecap="round" stroke-linejoin="round"/>
<path d="M293.166 115.665C293.166 115.665 299.949 123.509 301.213 130.799C302.477 138.089 296.911 141.778 294.933 144.549C293.078 147.16 291.931 150.149 291.588 153.26C291.329 155.987 295.474 156.351 295.474 156.351C295.474 156.351 292.625 158.823 285.787 160.128C278.949 161.433 275.009 156.424 275.009 156.424C275.009 156.424 281.893 151.321 283.314 147.093C284.735 142.865 285.23 131.229 284.798 128.525C284.366 125.82 283.071 122.824 283.047 122.022C283.024 121.22 284.971 113.172 293.166 115.665Z" fill="#263238" stroke="#263238" stroke-linecap="round" stroke-linejoin="round"/>
<path d="M310.005 281.327C309.158 275.415 306.394 258.728 306.394 258.728C306.394 258.728 285.732 250.905 264.638 252.166C243.544 253.428 239.439 257.423 239.439 257.423L235.733 283.099H243.584L310.005 281.327Z" fill="#263238" stroke="#263238" stroke-linecap="round" stroke-linejoin="round"/>
<path d="M294.901 217.779L294.022 212.289L314.967 212.829C314.967 212.829 298.065 189.916 296.432 183.121C294.799 176.327 289.327 168.541 283.973 164.495C278.62 160.449 270.078 160.463 270.078 160.463L265.58 160.806L266.813 154.595L252.211 143.31L251.811 145.744C251.811 145.744 250.131 152.845 249.306 156.833C248.482 160.821 246.865 162.191 246.865 162.191C246.865 162.191 238.08 154.493 232.585 153.538C227.09 152.583 219.852 156.308 218.847 162.067C217.842 167.826 222.772 216.685 223.322 220.199C223.871 223.713 230.96 238.25 232.287 242.624C233.614 246.998 239.439 258.524 239.439 258.524C239.439 258.524 250.869 267.039 270.125 268.059C289.382 269.08 307.611 259.552 307.611 259.552C307.611 259.552 301.331 240.758 299.698 234.189C298.065 227.621 294.901 217.779 294.901 217.779ZM244.659 236.114C244.659 236.114 241.409 223.195 240.797 219.018C240.184 214.841 239.109 202.98 239.109 202.98L248.451 220.804L244.659 236.114Z" fill="#2C7250" stroke="#263238" stroke-linecap="round" stroke-linejoin="round"/>
<path d="M233.716 189.843L232.475 186.832" stroke="#263238" stroke-linecap="round" stroke-linejoin="round"/>
<path d="M239.117 202.972L235.592 194.392" stroke="#263238" stroke-linecap="round" stroke-linejoin="round"/>
<path d="M290.395 216.583C290.395 216.583 285.073 228.627 278.227 237.637" stroke="#263238" stroke-linecap="round" stroke-linejoin="round"/>
<path d="M269.356 254.733C268.705 255.352 268.053 255.936 267.425 256.461" stroke="#263238" stroke-linecap="round" stroke-linejoin="round"/>
<path d="M287.53 231.207C287.53 231.207 279.585 243.812 271.829 252.188" stroke="#263238" stroke-linecap="round" stroke-linejoin="round"/>
<path d="M270.055 160.463L265.557 160.806L266.789 154.595L252.187 143.31L251.787 145.744C251.787 145.744 250.107 152.845 249.283 156.833C248.459 160.821 246.841 162.191 246.841 162.191C244.07 159.803 241.08 157.642 237.908 155.732C239.109 159.377 243.709 171.916 251.324 176.4C260.273 181.671 269.866 177.224 271.829 171.661C272.969 168.123 273.68 164.477 273.949 160.791C272.66 160.598 271.359 160.488 270.055 160.463Z" fill="white" stroke="#263238" stroke-linecap="round" stroke-linejoin="round"/>
<path d="M264.143 160.12L263.751 165.668L268.422 160.791L264.143 160.12Z" fill="#263238" stroke="#263238" stroke-linecap="round" stroke-linejoin="round"/>
<path d="M283.605 183.026C283.605 183.026 284.759 174.395 284.657 171.092C284.554 167.79 282.411 159.909 281.391 157.729C280.37 155.55 275.04 151.948 274.624 153.946C274.208 155.943 275.087 161.236 275.126 162.308C275.165 163.379 274.592 168.06 274.592 168.06C274.592 168.06 274.694 163.868 272.74 162.154C270.785 160.441 269.38 160.922 269.419 162.023V163.124C269.419 163.124 271.664 166.594 271.774 169.459C271.884 172.324 271.57 178.062 271.625 179.826C271.68 181.59 275.385 186.117 276.131 187.196C276.877 188.275 283.769 196.032 283.769 196.032L290.262 191.009L283.605 183.026Z" fill="white" stroke="#263238" stroke-linecap="round" stroke-linejoin="round"/>
<path d="M283.832 167.367C283.832 167.367 279.766 158.881 278.125 159.581C276.484 160.281 280.48 167.454 280.48 167.454L281.265 169.204C281.265 169.204 278.125 175.036 277.701 176.793C277.277 178.55 277.332 180.11 277.827 180.759" fill="white"/>
<path d="M283.832 167.367C283.832 167.367 279.766 158.881 278.125 159.581C276.484 160.281 280.48 167.454 280.48 167.454L281.265 169.204C281.265 169.204 278.125 175.036 277.701 176.793C277.277 178.55 277.332 180.11 277.827 180.759" stroke="#263238" stroke-linecap="round" stroke-linejoin="round"/>
<path d="M287.263 186.015L275.157 201.325C275.157 201.325 283.903 207.703 289.013 211.75C294.124 215.796 304.863 224.996 308.451 225.776C312.038 226.556 317.722 226.191 317.997 219.791C318.272 213.39 315.846 211.691 311.669 207.397C307.493 203.103 287.263 186.015 287.263 186.015Z" fill="#2C7250" stroke="#263238" stroke-linecap="round" stroke-linejoin="round"/>
<path d="M288.433 124.464C290.535 127.517 291.693 131.048 291.777 134.671C291.737 138.104 287.812 144.148 286.925 147.173C286.038 150.199 283.141 154.463 274.906 157.474C268.626 159.763 265.235 162.031 262.464 159.814C259.692 157.598 252.541 147.778 252.541 147.778C252.541 147.778 266.577 134.459 271.13 130.449C275.684 126.44 282.458 122.569 288.433 124.464Z" fill="white" stroke="#263238" stroke-linecap="round" stroke-linejoin="round"/>
<path d="M278.879 148.157C278.26 148.554 277.553 148.814 276.81 148.917C276.067 149.021 275.309 148.965 274.592 148.755" stroke="#263238" stroke-linecap="round" stroke-linejoin="round"/>
<path d="M268.045 148.449C268.045 148.449 268.65 151.154 272.991 152.473" stroke="#263238" stroke-linecap="round" stroke-linejoin="round"/>
<path d="M271.405 136.828C271.408 137.076 271.487 137.318 271.632 137.527C271.777 137.735 271.982 137.902 272.224 138.007C272.466 138.112 272.735 138.152 273 138.121C273.265 138.091 273.515 137.992 273.723 137.835C273.93 137.679 274.085 137.471 274.171 137.236C274.257 137.001 274.27 136.749 274.208 136.507C274.147 136.266 274.013 136.046 273.823 135.872C273.632 135.697 273.393 135.577 273.132 135.523C272.926 135.503 272.718 135.521 272.52 135.576C272.322 135.63 272.137 135.721 271.976 135.842C271.816 135.964 271.683 136.113 271.585 136.282C271.487 136.452 271.426 136.637 271.405 136.828Z" fill="#263238"/>
<path d="M276.987 137.047C277.017 136.754 276.975 136.459 276.863 136.183C276.752 135.908 276.573 135.661 276.341 135.46C276.11 135.259 275.832 135.11 275.528 135.025C275.225 134.94 274.905 134.921 274.592 134.969" stroke="#263238" stroke-linecap="round" stroke-linejoin="round"/>
<path d="M283.4 140.59C283.403 140.794 283.467 140.994 283.586 141.166C283.705 141.338 283.873 141.475 284.072 141.562C284.272 141.649 284.493 141.682 284.712 141.658C284.93 141.633 285.137 141.551 285.307 141.422C285.478 141.294 285.607 141.123 285.677 140.929C285.748 140.736 285.759 140.528 285.708 140.329C285.657 140.13 285.547 139.948 285.39 139.805C285.233 139.662 285.036 139.562 284.821 139.518C284.481 139.49 284.142 139.586 283.876 139.786C283.611 139.986 283.44 140.275 283.4 140.59Z" fill="#263238"/>
<path d="M287.585 141.071C287.616 140.778 287.574 140.481 287.461 140.205C287.349 139.929 287.17 139.681 286.937 139.48C286.705 139.279 286.426 139.131 286.121 139.046C285.817 138.962 285.496 138.944 285.183 138.993" stroke="#263238" stroke-linecap="round" stroke-linejoin="round"/>
<path d="M280.849 133.716C279.722 132.766 278.324 132.138 276.822 131.908C275.353 131.79 273.882 132.118 272.63 132.841" stroke="#263238" stroke-linecap="round" stroke-linejoin="round"/>
<path d="M286.07 137.054C286.07 137.054 288.04 137.215 288.927 139.766" stroke="#263238" stroke-linecap="round" stroke-linejoin="round"/>
<path d="M295.05 118.231C295.05 118.231 286.14 126.148 281.116 129.815C276.092 133.482 274.051 132.906 269.341 138.636C264.63 144.367 260.289 149.258 253.883 151.504C247.477 153.749 239.58 151.504 236.613 149.273C233.645 147.042 232.915 145.227 232.915 145.227C232.915 145.227 237.562 145.081 237.248 140.955C235.89 123.415 235.812 121.162 237.421 115.519C239.03 109.877 248.553 102.47 262.636 102.718C276.72 102.966 289.273 111.335 292.004 112.924C294.736 114.513 296.102 115.92 295.05 118.231Z" fill="#263238" stroke="#263238" stroke-linecap="round" stroke-linejoin="round"/>
<path d="M243.882 141.093C242.993 140.853 242.177 140.426 241.496 139.844C240.815 139.262 240.288 138.542 239.957 137.74" stroke="#696969" stroke-linecap="round" stroke-linejoin="round"/>
<path d="M282.67 119.332C277.308 123.414 269.199 129.808 263.829 135.108C259.906 139.069 254.472 141.449 248.686 141.742" stroke="#696969" stroke-linecap="round" stroke-linejoin="round"/>
<path d="M288.189 115.22C288.189 115.22 287.404 115.782 286.117 116.744" stroke="#696969" stroke-linecap="round" stroke-linejoin="round"/>
<path d="M251.638 132.505C250.513 133.091 249.316 133.548 248.074 133.869C241.338 135.378 239.289 127.147 239.289 127.147" stroke="#696969" stroke-linecap="round" stroke-linejoin="round"/>
<path d="M273.289 118.275C267.653 122.555 261.786 126.568 255.712 130.297" stroke="#696969" stroke-linecap="round" stroke-linejoin="round"/>
<path d="M241.291 122.452C241.291 122.452 243.136 124.391 248.474 123.91C253.812 123.429 259.731 118.632 259.731 118.632" stroke="#696969" stroke-linecap="round" stroke-linejoin="round"/>
<path d="M244.667 236.113L239.604 256.315" stroke="#263238" stroke-linecap="round" stroke-linejoin="round"/>
<path d="M143.398 283.441L148.65 246.145C148.65 246.145 145.392 241.042 132.242 240.313C119.093 239.584 87.7232 251.248 87.7232 251.248L79.967 280.132L143.398 283.441Z" fill="#263238" stroke="#263238" stroke-linecap="round" stroke-linejoin="round"/>
<path d="M98.4545 143.922L71.9989 133.278L94.3959 116.562L91.5383 110.781C91.5383 110.781 65.7421 118.72 59.8622 121.716C53.9823 124.712 41.9242 129.341 41.7672 132.01C41.6102 134.678 71.52 159.042 79.4488 163.095C87.3777 167.148 97.693 173.979 97.693 173.979C97.693 173.979 94.5529 214.87 94.4037 216.853C94.2545 218.836 82.7931 262.475 82.7146 263.794C82.6361 265.114 87.833 266.834 96.4055 266.623C104.978 266.411 116.966 256.759 119.957 254.266C122.948 251.773 130.264 248.842 133.483 248.674C136.701 248.507 148.61 246.145 148.61 246.145L166.352 194.093C166.352 194.093 173.496 164.334 167.702 160.383C161.909 156.432 137.871 152.218 137.871 152.218L111.651 149.535L98.4545 143.922Z" fill="#2C7250" stroke="#263238" stroke-linecap="round" stroke-linejoin="round"/>
<path d="M112.852 247.814C115.584 245.977 119.132 244.082 122.649 243.579C127.53 242.928 132.453 242.585 137.384 242.551" fill="#2C7250"/>
<path d="M112.852 247.814C115.584 245.977 119.132 244.082 122.649 243.579C127.53 242.928 132.453 242.585 137.384 242.551" stroke="#263238" stroke-linecap="round" stroke-linejoin="round"/>
<path d="M107.835 251.816C107.835 251.816 108.416 251.255 109.406 250.417L107.835 251.816Z" fill="#2C7250"/>
<path d="M107.835 251.816C107.835 251.816 108.416 251.255 109.406 250.417" stroke="#263238" stroke-linecap="round" stroke-linejoin="round"/>
<path d="M118.025 241.216C116.842 241.523 115.694 241.933 114.594 242.441L118.025 241.216Z" fill="#2C7250"/>
<path d="M118.025 241.216C116.842 241.523 115.694 241.933 114.594 242.441" stroke="#263238" stroke-linecap="round" stroke-linejoin="round"/>
<path d="M133.671 240.56C129.694 240.059 125.664 240.044 121.683 240.517L133.671 240.56Z" fill="#2C7250"/>
<path d="M133.671 240.56C129.694 240.059 125.664 240.044 121.683 240.517" stroke="#263238" stroke-linecap="round" stroke-linejoin="round"/>
<path d="M92.6296 156.964L91.7817 154.135" stroke="#263238" stroke-linecap="round" stroke-linejoin="round"/>
<path d="M97.7166 173.979L93.5481 160.033" stroke="#263238" stroke-linecap="round" stroke-linejoin="round"/>
<path d="M71.9985 133.242C68.3264 133.618 64.6124 133.426 61.0081 132.673" stroke="#263238" stroke-linecap="round" stroke-linejoin="round"/>
<path d="M150.848 186.46L163.212 217.436C163.212 217.436 147.959 239.824 145.29 242.66C143.071 244.888 140.692 246.972 138.169 248.9L133.553 248.66C131.418 248.551 126.151 247.282 124.965 249.207C123.78 251.131 123.992 253.464 120.027 254.251C116.063 255.039 119.548 256.212 122.037 256.344C124.526 256.475 127.195 253.632 128.254 253.683L130.743 253.814L141.82 265.311L147.095 254.66C147.095 254.66 170.128 233.336 173.92 229.56C177.712 225.783 183.835 218.821 183.835 218.821C183.835 218.821 172.711 172.565 171.596 166.879C170.481 161.192 167.176 157.401 156.414 158.473" fill="#2C7250"/>
<path d="M150.848 186.46L163.212 217.436C163.212 217.436 147.959 239.824 145.29 242.66C143.071 244.888 140.692 246.972 138.169 248.9L133.553 248.66C131.418 248.551 126.151 247.282 124.965 249.207C123.78 251.131 123.992 253.464 120.027 254.251C116.063 255.039 119.548 256.212 122.037 256.344C124.526 256.475 127.195 253.632 128.254 253.683L130.743 253.814L141.82 265.311L147.095 254.66C147.095 254.66 170.128 233.336 173.92 229.56C177.712 225.783 183.835 218.821 183.835 218.821C183.835 218.821 172.711 172.565 171.596 166.879C170.481 161.192 167.176 157.401 156.414 158.473" stroke="#263238" stroke-linecap="round" stroke-linejoin="round"/>
<path d="M141.004 246.619C139.433 247.945 138.138 248.915 138.138 248.915L133.522 248.674C131.387 248.565 126.119 247.297 124.934 249.221C123.748 251.146 123.96 253.479 119.996 254.266C116.032 255.053 119.517 256.227 122.006 256.358C124.494 256.489 127.163 253.646 128.223 253.697L130.712 253.829L141.789 265.325L147.064 254.674L148.485 253.355L141.004 246.619Z" fill="white" stroke="#263238" stroke-linecap="round" stroke-linejoin="round"/>
<path d="M121.974 174.642L115.992 168.847L107.844 174.497L117.656 158.735L123.246 160.594L121.974 174.642Z" fill="white" stroke="#263238" stroke-linecap="round" stroke-linejoin="round"/>
<path d="M115.513 159.231C115.513 159.231 119.281 166.871 120.349 170.064C121.417 173.258 121.974 174.657 121.974 174.657L138.625 150.432C138.625 150.432 134.103 141.385 133.64 138.615C133.441 137.154 132.954 135.741 132.203 134.445C132.203 134.445 131.512 142.464 125.24 148.391C121.661 151.732 118.406 155.36 115.513 159.231Z" fill="white" stroke="#263238" stroke-linecap="round" stroke-linejoin="round"/>
<path d="M115.513 159.231C115.513 159.231 116.918 162.081 118.261 165.063L125.648 152.575L123.002 150.607C120.282 153.308 117.779 156.19 115.513 159.231Z" fill="#263238" stroke="#263238" stroke-linecap="round" stroke-linejoin="round"/>
<path d="M123.874 167.681L121.974 174.643L129.047 169.321L123.874 167.681Z" fill="white" stroke="#263238" stroke-linecap="round" stroke-linejoin="round"/>
<path d="M137.824 146.262L123.874 167.68L132.729 178.331L143.963 154.077L137.824 146.262Z" fill="white" stroke="#263238" stroke-linecap="round" stroke-linejoin="round"/>
<path d="M90.0156 126.578C90.0156 126.578 93.721 138.972 95.3539 143.572C96.9867 148.172 99.9227 152.065 104.225 154.449C108.527 156.833 110.23 160.281 115.082 160.522C119.933 160.762 124.698 155.513 125.876 153.603C127.053 151.693 132.666 146.313 133.122 142.187C133.577 138.061 133.828 133.963 133.828 133.963C134.983 132.728 135.839 131.276 136.336 129.706C136.833 128.136 136.96 126.485 136.709 124.865C135.76 119.507 132.462 117.961 132.462 117.961C132.462 117.961 128.851 107.551 117.547 105.393C106.242 103.235 91.6406 113.288 91.0205 116.992C90.5721 119.913 90.31 122.856 90.2354 125.806L90.0156 126.578Z" fill="white" stroke="#263238" stroke-linecap="round" stroke-linejoin="round"/>
<path d="M101.555 137.747C101.555 137.747 100.244 142.004 101.202 143.623C102.16 145.241 105.017 143.623 106.328 142.894" stroke="#263238" stroke-linecap="round" stroke-linejoin="round"/>
<path d="M102.678 147.239C102.678 147.239 105.543 148.959 109.94 146.24C112.572 144.605 114.57 142.229 115.639 139.46" stroke="#263238" stroke-linecap="round" stroke-linejoin="round"/>
<path d="M115.348 131.412C115.335 131.696 115.236 131.972 115.063 132.207C114.889 132.442 114.647 132.626 114.366 132.74C114.084 132.853 113.774 132.89 113.47 132.847C113.167 132.804 112.883 132.682 112.65 132.496C112.418 132.31 112.247 132.067 112.156 131.795C112.066 131.522 112.06 131.232 112.139 130.957C112.219 130.681 112.38 130.432 112.604 130.238C112.829 130.044 113.108 129.913 113.409 129.859C113.886 129.834 114.354 129.982 114.716 130.272C115.078 130.562 115.304 130.97 115.348 131.412Z" fill="#263238"/>
<path d="M108.95 131.528C108.923 131.192 108.979 130.854 109.116 130.541C109.252 130.228 109.465 129.948 109.737 129.724C110.01 129.501 110.334 129.338 110.685 129.25C111.036 129.162 111.404 129.151 111.761 129.217" stroke="#263238" stroke-linecap="round" stroke-linejoin="round"/>
<path d="M101.5 135.378C101.492 135.613 101.412 135.842 101.27 136.037C101.127 136.232 100.928 136.386 100.695 136.48C100.463 136.575 100.206 136.606 99.9549 136.57C99.7039 136.534 99.469 136.433 99.2775 136.278C99.0859 136.123 98.9455 135.921 98.8727 135.696C98.7998 135.47 98.7974 135.229 98.8657 135.002C98.934 134.775 99.0703 134.571 99.2588 134.413C99.4472 134.255 99.68 134.149 99.9302 134.109C100.317 134.093 100.696 134.215 100.989 134.452C101.281 134.688 101.464 135.019 101.5 135.378Z" fill="#263238"/>
<path d="M96.6725 135.808C96.6445 135.47 96.7012 135.131 96.8382 134.818C96.9751 134.504 97.1886 134.224 97.4618 134C97.735 133.776 98.0604 133.614 98.4125 133.527C98.7645 133.439 99.1337 133.429 99.4907 133.497" stroke="#263238" stroke-linecap="round" stroke-linejoin="round"/>
<path d="M93.8936 133.716C93.8936 133.716 94.0741 132.374 96.3743 131.237C98.6744 130.1 99.3495 130.041 99.3495 130.041" stroke="#263238" stroke-linecap="round" stroke-linejoin="round"/>
<path d="M104.633 127.584C105.908 126.832 107.365 126.383 108.872 126.279C110.628 126.173 112.39 126.355 114.077 126.819" stroke="#263238" stroke-linecap="round" stroke-linejoin="round"/>
<path d="M101.956 94.5818C101.956 94.5818 95.6284 92.4531 90.6827 93.1967C85.737 93.9403 75.6807 101.996 77.243 105.663C78.8052 109.33 85.4466 106.29 84.8656 108.455C84.2847 110.62 76.089 113.784 74.8643 119.303C73.6397 124.822 77.2665 131.2 83.2563 131.507C89.2461 131.813 92.2921 122.029 93.0143 124.836C93.7365 127.643 96.3899 128 101.289 124.267C106.187 120.535 110.835 113.587 112.279 115.461C113.723 117.335 113.849 123.32 115.356 123.597C116.864 123.874 119.446 122.212 121.166 123.298C122.885 124.384 123.984 128.233 125.366 127.504C126.747 126.775 126.19 124.953 126.936 123.4C127.681 121.847 127.783 118.712 131.238 118.435C132.564 118.333 133.247 118.341 133.247 118.341C133.247 118.341 135.854 108.302 132.023 101.726C128.192 95.1505 114.752 92.8468 111.612 93.481C109.759 93.8475 107.942 94.3547 106.179 94.9974L101.956 94.5818Z" fill="#263238" stroke="#263238" stroke-linecap="round" stroke-linejoin="round"/>
<path d="M129.094 111.357C130.049 111.735 130.924 112.268 131.677 112.931" stroke="#696969" stroke-linecap="round" stroke-linejoin="round"/>
<path d="M114.807 114.032C114.807 114.032 120.765 110.168 126.457 110.722" stroke="#696969" stroke-linecap="round" stroke-linejoin="round"/>
<path d="M103.126 108.389C99.0591 110.081 94.1919 112.99 92.7946 117.553C90.2746 125.806 102.356 119.011 104.28 116.824C106.203 114.637 100.142 114.287 98.596 116.197" stroke="#696969" stroke-linecap="round" stroke-linejoin="round"/>
<path d="M109.186 106.458C107.894 106.747 106.623 107.11 105.378 107.544" stroke="#696969" stroke-linecap="round" stroke-linejoin="round"/>
<path d="M111.258 99.8016C107.4 100.388 103.647 101.462 100.103 102.995C92.3862 106.582 81.4978 115.308 80.0298 121.869" stroke="#696969" stroke-linecap="round" stroke-linejoin="round"/>
<path d="M118.543 98.9779C118.543 98.9779 116.455 99.0581 113.456 99.4663" stroke="#696969" stroke-linecap="round" stroke-linejoin="round"/>
<path d="M221.281 71.5155H254.252C255.71 71.5155 257.108 72.0532 258.138 73.0102C259.169 73.9672 259.748 75.2652 259.748 76.6187V93.1455C259.748 94.499 259.169 95.797 258.138 96.754C257.108 97.711 255.71 98.2487 254.252 98.2487H230.701L231.989 106.997L224.013 98.2487H221.257C219.8 98.2487 218.402 97.711 217.372 96.754C216.341 95.797 215.762 94.499 215.762 93.1455V76.6187C215.762 75.9467 215.905 75.2813 216.183 74.6607C216.46 74.0402 216.867 73.4766 217.38 73.0025C217.893 72.5283 218.501 72.1529 219.171 71.8977C219.84 71.6425 220.557 71.5127 221.281 71.5155Z" fill="white" stroke="#263238" stroke-linecap="round" stroke-linejoin="round"/>
<path d="M233.545 89.3787C236.574 86.7511 236.736 82.3409 233.906 79.5281C231.077 76.7154 226.328 76.5652 223.299 79.1927C220.27 81.8203 220.108 86.2305 222.938 89.0433C225.767 91.856 230.516 92.0062 233.545 89.3787Z" fill="#2C7250" stroke="#263238" stroke-linecap="round" stroke-linejoin="round"/>
<path d="M225.418 81.8605C225.886 81.5062 226.454 81.2848 227.054 81.2228C227.655 81.1607 228.261 81.2606 228.802 81.5106" stroke="#263238" stroke-linecap="round" stroke-linejoin="round"/>
<path d="M232.554 81.8604C232.755 81.7217 232.988 81.6296 233.235 81.5918C233.482 81.5539 233.735 81.5714 233.973 81.6427C234.211 81.714 234.427 81.8371 234.604 82.0018C234.78 82.1665 234.912 82.368 234.988 82.5894" stroke="#263238" stroke-linecap="round" stroke-linejoin="round"/>
<path d="M226.926 85.1702C227.299 85.577 227.76 85.9072 228.278 86.1396C228.796 86.372 229.361 86.5016 229.937 86.5201C230.512 86.5387 231.085 86.4457 231.619 86.2472C232.154 86.0486 232.638 85.7489 233.041 85.367" stroke="#263238" stroke-linecap="round" stroke-linejoin="round"/>
<path opacity="0.2" d="M226.925 84.5649C226.925 84.203 226.81 83.8493 226.593 83.5483C226.377 83.2474 226.069 83.0129 225.709 82.8744C225.349 82.7359 224.953 82.6997 224.571 82.7703C224.188 82.8409 223.837 83.0151 223.562 83.2711C223.286 83.527 223.099 83.853 223.022 84.208C222.946 84.5629 222.985 84.9308 223.135 85.2652C223.284 85.5996 223.536 85.8853 223.86 86.0864C224.184 86.2875 224.565 86.3948 224.955 86.3948C225.478 86.3948 225.979 86.202 226.348 85.8588C226.718 85.5157 226.925 85.0503 226.925 84.5649Z" fill="black"/>
<path opacity="0.2" d="M235.553 84.9514C235.551 84.633 235.448 84.3223 235.257 84.0583C235.065 83.7943 234.794 83.5889 234.476 83.4681C234.159 83.3473 233.811 83.3164 233.475 83.3794C233.139 83.4424 232.83 83.5964 232.588 83.822C232.347 84.0476 232.182 84.3347 232.116 84.647C232.049 84.9594 232.084 85.2829 232.216 85.5769C232.347 85.8709 232.57 86.1221 232.855 86.2988C233.14 86.4755 233.475 86.5698 233.818 86.5698C234.046 86.5698 234.273 86.5279 234.484 86.4465C234.695 86.365 234.886 86.2457 235.047 86.0953C235.209 85.945 235.336 85.7665 235.423 85.5702C235.51 85.3739 235.554 85.1636 235.553 84.9514Z" fill="black"/>
<path d="M251.118 89.6057C254.262 87.0983 254.623 82.6982 251.923 79.7779C249.223 76.8575 244.484 76.5228 241.34 79.0303C238.195 81.5377 237.835 85.9378 240.535 88.8582C243.235 91.7785 247.973 92.1132 251.118 89.6057Z" fill="#2C7250" stroke="#263238" stroke-linecap="round" stroke-linejoin="round"/>
<path d="M243.215 81.8604C243.682 81.5076 244.249 81.2871 244.847 81.225C245.446 81.163 246.051 81.2621 246.59 81.5105" stroke="#263238" stroke-linecap="round" stroke-linejoin="round"/>
<path d="M250.343 81.8604C250.544 81.7202 250.778 81.6268 251.026 81.5881C251.274 81.5494 251.528 81.5664 251.767 81.6379C252.006 81.7093 252.224 81.833 252.401 81.9986C252.578 82.1642 252.709 82.3668 252.785 82.5894" stroke="#263238" stroke-linecap="round" stroke-linejoin="round"/>
<path d="M244.714 85.1702C245.088 85.577 245.548 85.9072 246.067 86.1396C246.585 86.372 247.15 86.5016 247.725 86.5201C248.3 86.5387 248.874 86.4457 249.408 86.2472C249.943 86.0486 250.427 85.7489 250.83 85.367" stroke="#263238" stroke-linecap="round" stroke-linejoin="round"/>
<path opacity="0.2" d="M244.714 84.5649C244.714 84.203 244.599 83.8493 244.382 83.5483C244.166 83.2474 243.858 83.0129 243.498 82.8744C243.138 82.7359 242.742 82.6997 242.359 82.7703C241.977 82.8409 241.626 83.0151 241.351 83.2711C241.075 83.527 240.887 83.853 240.811 84.208C240.735 84.5629 240.774 84.9308 240.923 85.2652C241.073 85.5996 241.325 85.8853 241.649 86.0864C241.973 86.2875 242.354 86.3948 242.744 86.3948C243.266 86.3948 243.768 86.202 244.137 85.8588C244.507 85.5157 244.714 85.0503 244.714 84.5649Z" fill="black"/>
<path opacity="0.2" d="M253.349 84.9514C253.348 84.633 253.245 84.3223 253.053 84.0583C252.862 83.7943 252.59 83.5889 252.273 83.4681C251.956 83.3473 251.607 83.3164 251.271 83.3794C250.935 83.4424 250.627 83.5964 250.385 83.822C250.143 84.0476 249.979 84.3347 249.912 84.647C249.846 84.9594 249.881 85.2829 250.012 85.5769C250.144 85.8709 250.366 86.1221 250.651 86.2988C250.937 86.4755 251.272 86.5698 251.615 86.5698C251.843 86.5698 252.069 86.5279 252.28 86.4465C252.491 86.365 252.683 86.2457 252.844 86.0953C253.005 85.945 253.133 85.7665 253.22 85.5702C253.306 85.3739 253.35 85.1636 253.349 84.9514Z" fill="black"/>
<path d="M163.29 71.5155H130.319C128.862 71.5155 127.464 72.0532 126.433 73.0102C125.403 73.9672 124.824 75.2652 124.824 76.6186V93.1455C124.824 94.4989 125.403 95.7969 126.433 96.7539C127.464 97.711 128.862 98.2486 130.319 98.2486H153.87L152.583 106.997L160.558 98.2486H163.29C164.748 98.2486 166.146 97.711 167.176 96.7539C168.207 95.7969 168.786 94.4989 168.786 93.1455V76.6186C168.786 75.2652 168.207 73.9672 167.176 73.0102C166.146 72.0532 164.748 71.5155 163.29 71.5155Z" fill="white" stroke="#263238" stroke-linecap="round" stroke-linejoin="round"/>
<path d="M158.996 81.6562C158.994 80.2868 158.495 78.958 157.579 77.8846C156.664 76.8111 155.385 76.0558 153.95 75.7405C152.515 75.4253 151.007 75.5686 149.671 76.1473C148.335 76.726 147.247 77.7063 146.585 78.9297C145.922 77.7063 144.835 76.726 143.498 76.1473C142.162 75.5686 140.654 75.4253 139.219 75.7405C137.784 76.0558 136.506 76.8111 135.59 77.8846C134.674 78.958 134.175 80.2868 134.173 81.6562C134.173 84.7619 136.733 87.9258 139.268 89.7702C140.54 90.6961 146.334 94.2901 146.506 94.1954C146.679 94.2901 152.472 90.6961 153.744 89.7702C156.154 88.0206 158.996 84.6233 158.996 81.6562Z" fill="#2C7250" stroke="#263238" stroke-linecap="round" stroke-linejoin="round"/>
</svg>
