<svg width="373" height="340" viewBox="0 0 373 340" fill="none" xmlns="http://www.w3.org/2000/svg">
<path d="M186.124 340C247.262 340 296.823 337.025 296.823 333.356C296.823 329.686 247.262 326.712 186.124 326.712C124.986 326.712 75.4246 329.686 75.4246 333.356C75.4246 337.025 124.986 340 186.124 340Z" fill="#263238"/>
<path d="M76.2295 287.208C77.7752 287.821 81.5511 287.747 81.5511 287.747C81.5511 287.747 80.746 285.481 80.6736 285.34C79.8685 283.753 77.2278 281.132 75.0943 281.398C74.738 281.45 74.3978 281.571 74.0963 281.752C73.7947 281.934 73.5388 282.172 73.3454 282.452C73.152 282.731 73.0256 283.045 72.9746 283.372C72.9235 283.7 72.949 284.033 73.0494 284.351C73.3956 285.673 74.9091 286.677 76.2295 287.208Z" fill="#263238"/>
<path d="M77.5256 297.226C79.1357 297.44 82.493 296.547 82.7667 296.488C83.3196 298.25 84 299.977 84.8036 301.656C85.2705 302.638 85.7697 303.62 86.2849 304.609C85.979 304.203 85.6972 303.871 85.6489 303.782C84.393 302.453 81.1163 300.556 79.1357 301.331C78.811 301.467 78.5211 301.665 78.2851 301.911C78.0491 302.156 77.8721 302.445 77.7658 302.758C77.6595 303.071 77.6261 303.4 77.668 303.726C77.7098 304.051 77.8259 304.364 78.0086 304.646C78.7412 305.864 80.4883 306.469 81.9133 306.654C83.3383 306.838 86.2366 306.137 87.0014 305.916C87.2027 306.292 87.3959 306.654 87.5972 307.03C88.5794 308.817 89.5536 310.589 90.4633 312.353C90.7773 312.973 91.0671 313.601 91.365 314.221C91.0913 313.852 90.8578 313.549 90.8175 313.483C89.5616 312.154 86.2769 310.256 84.2963 311.024C83.9724 311.161 83.6835 311.359 83.4482 311.605C83.2129 311.851 83.0364 312.14 82.9302 312.452C82.824 312.764 82.7904 313.094 82.8316 313.419C82.8727 313.744 82.9878 314.057 83.1692 314.339C83.9019 315.564 85.6569 316.162 87.0739 316.354C88.4908 316.546 91.0993 315.904 92.0252 315.675C92.2989 316.317 92.5807 316.967 92.8303 317.602C92.9752 318.045 93.1603 318.451 93.2811 318.901C93.4019 319.352 93.5468 319.78 93.6836 320.215C93.901 321.057 94.1345 321.928 94.3277 322.748C94.4646 323.323 94.5854 323.877 94.7142 324.431C94.4002 323.803 93.7642 322.6 93.6998 322.504C92.6773 321.027 89.7468 318.68 87.6697 319.167C87.326 319.257 87.0068 319.412 86.7328 319.623C86.4587 319.833 86.2359 320.094 86.0788 320.389C85.9217 320.683 85.8338 321.004 85.8207 321.332C85.8077 321.659 85.8698 321.986 86.0031 322.29C86.5264 323.597 88.1527 324.438 89.5294 324.822C91.0349 325.243 94.3599 324.822 94.7947 324.822C94.9959 325.737 95.1811 326.631 95.3421 327.472C95.7044 329.333 95.9701 331.009 96.1472 332.419H97.5561C97.3065 330.942 96.9845 329.215 96.5659 327.251C96.3646 326.321 96.1311 325.331 95.8815 324.298C96.888 323.929 97.8693 323.505 98.8201 323.028C99.9231 324.121 102.741 325.405 103.103 325.568C102.717 326.431 102.338 327.266 101.96 328.056C101.155 329.702 100.446 331.156 99.7862 332.396H101.316C101.871 331.252 102.491 329.953 103.135 328.506C103.53 327.635 103.94 326.69 104.335 325.715C104.737 325.789 108.046 326.409 109.592 326.092C110.985 325.797 112.684 325.073 113.304 323.803C113.462 323.51 113.552 323.19 113.566 322.863C113.581 322.536 113.52 322.211 113.388 321.907C113.256 321.603 113.055 321.328 112.799 321.1C112.543 320.873 112.238 320.697 111.903 320.585C109.866 319.957 106.758 322.061 105.615 323.493C105.551 323.574 104.931 324.556 104.552 325.184C104.713 324.785 104.874 324.401 105.035 323.988C105.357 323.176 105.655 322.356 105.985 321.47C106.122 321.042 106.267 320.607 106.412 320.171C106.557 319.736 106.662 319.263 106.79 318.805C107.072 317.735 107.29 316.642 107.491 315.535C108.296 315.793 111.041 316.679 112.482 316.591C113.924 316.502 115.703 316.015 116.508 314.848C116.713 314.58 116.854 314.276 116.922 313.954C116.99 313.633 116.984 313.302 116.903 312.983C116.823 312.664 116.67 312.365 116.455 312.103C116.24 311.842 115.967 311.625 115.654 311.467C113.738 310.559 110.317 312.205 108.956 313.468C108.868 313.549 108.006 314.538 107.539 315.092C107.652 314.428 107.773 313.763 107.861 313.084C108.127 311.128 108.328 309.142 108.538 307.178C108.602 306.573 108.674 305.967 108.747 305.362C109.021 305.458 112.289 306.573 113.899 306.469C115.332 306.381 117.12 305.901 117.925 304.734C118.129 304.466 118.27 304.161 118.338 303.839C118.405 303.518 118.398 303.186 118.317 302.868C118.235 302.549 118.082 302.249 117.866 301.988C117.65 301.727 117.376 301.511 117.063 301.353C115.155 300.445 111.734 302.091 110.373 303.354C110.268 303.45 109.021 304.875 108.763 305.251C108.916 303.922 109.085 302.593 109.31 301.294C109.599 299.548 110.013 297.822 110.55 296.126C110.671 296.171 114.085 297.352 115.735 297.249C117.16 297.153 118.955 296.673 119.76 295.506C119.965 295.238 120.106 294.934 120.174 294.612C120.243 294.291 120.236 293.96 120.156 293.641C120.075 293.322 119.922 293.023 119.707 292.761C119.492 292.5 119.219 292.283 118.907 292.125C116.991 291.217 113.569 292.863 112.209 294.126C112.104 294.222 110.76 295.765 110.542 296.06C110.542 295.957 110.599 295.853 110.631 295.75C111.218 294.05 111.97 292.403 112.877 290.826C113.368 289.947 113.883 289.135 114.415 288.353C115.026 288.633 117.828 289.881 119.326 289.94C120.823 289.999 122.594 289.696 123.56 288.618C123.796 288.373 123.973 288.084 124.08 287.771C124.186 287.459 124.219 287.129 124.177 286.804C124.136 286.479 124.02 286.165 123.837 285.884C123.655 285.603 123.409 285.36 123.118 285.171C121.322 284.078 117.715 285.392 116.218 286.485C116.138 286.544 115.413 287.223 114.833 287.747C115.083 287.4 115.324 287.009 115.566 286.706C116.468 285.466 117.369 284.374 118.182 283.421C118.649 282.882 119.084 282.402 119.495 281.945C120.243 281.945 123.287 281.849 124.615 281.28C125.943 280.712 127.401 279.678 127.715 278.327C127.799 278.01 127.81 277.679 127.747 277.357C127.683 277.036 127.547 276.729 127.347 276.459C127.147 276.188 126.887 275.959 126.584 275.786C126.281 275.614 125.942 275.501 125.589 275.455C123.448 275.249 120.912 277.936 120.131 279.538C120.058 279.678 119.277 281.967 119.326 281.967H119.374C118.963 282.388 118.569 282.838 118.086 283.347C117.281 284.292 116.307 285.363 115.381 286.588C114.36 287.902 113.424 289.27 112.579 290.686C111.613 292.261 110.804 293.914 110.164 295.624C110.164 295.624 110.164 295.669 110.164 295.691C110.164 295.115 110.164 293.476 110.124 293.373C109.882 291.623 108.288 288.39 106.171 288.028C105.816 287.976 105.454 287.995 105.107 288.081C104.761 288.168 104.439 288.321 104.162 288.53C103.885 288.74 103.659 289 103.5 289.296C103.341 289.591 103.253 289.914 103.24 290.243C103.111 291.63 104.206 293.018 105.277 293.934C106.485 294.923 109.834 295.875 110.107 295.949C109.509 297.706 109.035 299.496 108.69 301.309C108.489 302.365 108.32 303.428 108.159 304.506C108.159 304.003 108.159 303.553 108.159 303.494C107.91 301.744 106.315 298.511 104.198 298.149C103.844 298.098 103.481 298.116 103.135 298.203C102.788 298.289 102.466 298.442 102.189 298.652C101.912 298.861 101.687 299.122 101.528 299.417C101.369 299.712 101.28 300.035 101.268 300.364C101.139 301.752 102.242 303.14 103.304 304.018C104.367 304.897 107.225 305.775 107.982 305.997L107.813 307.23C107.555 309.208 107.306 311.179 107.008 313.136C106.903 313.815 106.766 314.479 106.637 315.151C106.637 314.708 106.637 314.332 106.637 314.272C106.396 312.53 104.802 309.289 102.685 308.928C102.33 308.879 101.969 308.899 101.624 308.986C101.278 309.074 100.957 309.227 100.681 309.436C100.404 309.645 100.179 309.905 100.019 310.199C99.8596 310.493 99.7692 310.814 99.754 311.142C99.6252 312.523 100.72 313.918 101.791 314.789C102.862 315.66 105.438 316.465 106.332 316.731C106.179 317.41 106.018 318.089 105.832 318.739C105.696 319.182 105.599 319.617 105.43 320.053C105.261 320.489 105.124 320.924 104.979 321.352C104.657 322.164 104.327 323.006 103.989 323.796C103.763 324.342 103.53 324.859 103.296 325.383C103.417 324.711 103.61 323.382 103.618 323.264C103.596 321.708 103.139 320.183 102.29 318.835C102.306 318.663 102.306 318.49 102.29 318.318C102.245 317.993 102.127 317.68 101.941 317.399C101.756 317.119 101.508 316.877 101.214 316.691C100.92 316.504 100.587 316.376 100.235 316.316C99.8836 316.255 99.5222 316.263 99.1743 316.34C97.0972 316.842 95.7849 320.186 95.6883 321.943C95.6883 322.046 95.7527 323.183 95.8091 323.892C95.7044 323.478 95.6078 323.08 95.4951 322.652C95.2777 321.81 95.0362 320.976 94.7786 320.075L94.3438 318.768C94.215 318.333 94.0137 317.883 93.8447 317.44C93.4341 316.406 92.9591 315.38 92.4599 314.361C93.265 314.184 96.115 313.519 97.2904 312.715C98.4659 311.91 99.5769 310.471 99.5769 309.097C99.5871 308.77 99.5219 308.444 99.3857 308.141C99.2495 307.839 99.0452 307.565 98.7862 307.34C98.5272 307.114 98.2193 306.941 97.8825 306.832C97.5458 306.722 97.1877 306.679 96.8315 306.705C94.6981 306.92 92.8061 310.042 92.4519 311.762C92.4519 311.873 92.2989 313.136 92.2506 313.837C91.9447 313.224 91.6387 312.611 91.3086 311.999C90.3506 310.234 89.3281 308.477 88.3137 306.72C87.9997 306.181 87.6938 305.635 87.3879 305.096C87.6777 305.037 91.0752 304.314 92.3553 303.413C93.4985 302.616 94.7061 301.309 94.69 299.914C94.699 299.587 94.633 299.262 94.4963 298.96C94.3596 298.658 94.1551 298.386 93.8963 298.161C93.6374 297.936 93.3299 297.764 92.9937 297.655C92.6575 297.546 92.3001 297.503 91.9447 297.529C89.8112 297.736 87.9192 300.859 87.565 302.586C87.565 302.712 87.3557 304.535 87.3315 305C86.6633 303.812 86.0031 302.623 85.4074 301.427C84.5922 299.814 83.8903 298.154 83.3061 296.459C83.443 296.459 86.9934 295.72 88.3057 294.768C89.4408 293.963 90.6485 292.657 90.6404 291.269C90.6494 290.941 90.5832 290.615 90.4461 290.312C90.3089 290.009 90.1039 289.736 89.8443 289.511C89.5847 289.285 89.2763 289.112 88.9391 289.003C88.602 288.894 88.2435 288.851 87.887 288.877C85.7535 289.091 83.8616 292.214 83.5154 293.934C83.5154 294.074 83.29 296.03 83.2819 296.385C83.2819 296.289 83.2014 296.193 83.1692 296.089C82.6377 294.375 82.274 292.621 82.0824 290.848C81.9616 289.866 81.9052 288.928 81.8811 288.006C82.5574 287.932 85.6489 287.555 86.929 286.847C88.2091 286.138 89.5053 284.986 89.6663 283.598C89.7148 283.276 89.6894 282.948 89.5916 282.636C89.4938 282.323 89.3258 282.033 89.0983 281.783C88.8709 281.533 88.5891 281.33 88.2709 281.186C87.9528 281.043 87.6054 280.961 87.251 280.948C85.1014 280.948 82.8874 283.864 82.2917 285.533C82.2917 285.629 82.0421 286.588 81.8972 287.29C81.8972 286.869 81.8972 286.448 81.8972 286.049C81.8972 284.573 82.0019 283.192 82.0985 281.982C82.1629 281.295 82.2353 280.675 82.3158 280.099C82.9357 279.708 85.4235 278.098 86.1883 276.947C86.9531 275.795 87.5408 274.208 86.9934 272.909C86.8731 272.6 86.6834 272.319 86.4368 272.083C86.1901 271.846 85.892 271.66 85.5617 271.536C85.2314 271.412 84.8764 271.353 84.5197 271.363C84.163 271.373 83.8126 271.452 83.4913 271.594C81.5832 272.495 81.076 276.024 81.398 277.759C81.398 277.906 82.1468 280.21 82.2031 280.188C82.1226 280.741 82.0421 281.339 81.9616 281.996C81.8328 283.2 81.6959 284.565 81.6557 286.064C81.5967 287.677 81.6397 289.291 81.7845 290.9C81.9375 292.699 82.2635 294.483 82.7586 296.23V296.296C82.4205 295.809 81.4222 294.473 81.3336 294.377C80.0777 293.048 76.801 291.151 74.8205 291.926C74.4957 292.062 74.2059 292.26 73.9698 292.505C73.7338 292.751 73.5569 293.04 73.4505 293.353C73.3442 293.665 73.3109 293.995 73.3527 294.32C73.3946 294.646 73.5106 294.959 73.6934 295.24C74.3616 296.444 76.1086 297.034 77.5256 297.226Z" fill="#263238"/>
<path d="M114.39 287.969C114.39 287.969 115.075 285.665 115.099 285.518C115.365 283.775 114.761 280.261 112.82 279.405C112.495 279.271 112.142 279.201 111.785 279.2C111.428 279.199 111.075 279.266 110.749 279.399C110.422 279.531 110.13 279.725 109.89 279.968C109.651 280.21 109.47 280.497 109.359 280.808C108.843 282.114 109.495 283.724 110.276 284.824C111.194 286.108 114.39 287.961 114.39 287.969Z" fill="#263238"/>
<path d="M263.581 293.218C264.925 293.757 268.194 293.683 268.194 293.683C268.194 293.683 267.494 291.719 267.429 291.601C266.713 290.228 264.442 287.954 262.599 288.183C262.293 288.228 262.001 288.331 261.741 288.486C261.482 288.642 261.262 288.846 261.094 289.085C260.927 289.324 260.817 289.593 260.771 289.874C260.725 290.155 260.744 290.441 260.828 290.715C261.133 291.889 262.446 292.753 263.581 293.218Z" fill="#263238"/>
<path d="M264.716 301.907C266.101 302.091 269.024 301.316 269.249 301.25C269.733 302.782 270.325 304.284 271.02 305.745C271.423 306.602 271.825 307.443 272.308 308.292C272.035 307.931 271.801 307.613 271.761 307.554C270.666 306.395 267.824 304.756 266.125 305.421C265.844 305.539 265.594 305.711 265.39 305.924C265.185 306.137 265.033 306.387 264.941 306.658C264.849 306.928 264.82 307.214 264.856 307.496C264.893 307.777 264.993 308.049 265.151 308.292C265.779 309.356 267.301 309.88 268.533 310.042C269.764 310.205 272.284 309.592 272.944 309.422L273.468 310.389C274.273 311.932 275.158 313.468 275.947 315.003C276.221 315.542 276.471 316.081 276.752 316.62L276.277 316C275.183 314.848 272.341 313.202 270.642 313.866C270.36 313.985 270.108 314.156 269.903 314.37C269.698 314.584 269.545 314.834 269.453 315.106C269.361 315.378 269.333 315.664 269.37 315.947C269.407 316.229 269.508 316.501 269.668 316.745C270.296 317.801 271.817 318.325 273.049 318.488C274.281 318.65 276.551 318.096 277.34 317.897C277.582 318.458 277.823 319.019 278.024 319.573C278.161 319.949 278.314 320.311 278.427 320.695C278.54 321.079 278.652 321.433 278.773 321.832C278.958 322.57 279.16 323.308 279.329 324.047C279.449 324.549 279.554 325.021 279.659 325.523C279.393 324.984 278.854 323.936 278.789 323.855C277.904 322.563 275.36 320.547 273.556 320.968C273.258 321.045 272.981 321.179 272.743 321.36C272.505 321.542 272.312 321.768 272.176 322.023C272.04 322.278 271.964 322.557 271.953 322.841C271.943 323.125 271.998 323.407 272.115 323.67C272.566 324.807 273.975 325.531 275.166 325.885C276.479 326.254 279.377 325.922 279.739 325.885C279.908 326.675 280.069 327.45 280.206 328.181C280.52 329.798 280.754 331.245 280.931 332.47H282.155C281.937 331.208 281.663 329.694 281.293 327.996C281.124 327.192 280.923 326.328 280.705 325.449C281.576 325.127 282.425 324.76 283.25 324.349C284.373 325.24 285.624 325.985 286.969 326.564C286.631 327.302 286.301 328.041 285.979 328.72C285.302 330.145 284.658 331.414 284.095 332.485H285.415C285.898 331.496 286.438 330.366 287.025 329.111C287.372 328.373 287.718 327.531 288.064 326.69C288.418 326.756 291.284 327.295 292.621 327.014C293.836 326.763 295.302 326.136 295.841 325.036C295.977 324.781 296.054 324.502 296.065 324.218C296.077 323.934 296.023 323.651 295.907 323.387C295.792 323.124 295.618 322.885 295.395 322.687C295.173 322.489 294.908 322.336 294.617 322.238C292.854 321.699 290.157 323.537 289.167 324.763C289.111 324.837 288.571 325.686 288.241 326.239C288.386 325.892 288.523 325.56 288.668 325.198C288.95 324.497 289.207 323.788 289.473 323.02C289.594 322.644 289.714 322.282 289.843 321.891C289.972 321.5 290.061 321.101 290.173 320.702C290.415 319.78 290.608 318.835 290.777 317.875C291.453 318.096 293.861 318.864 295.1 318.783C296.34 318.702 297.902 318.288 298.619 317.306C298.8 317.073 298.926 316.808 298.987 316.527C299.048 316.246 299.044 315.956 298.974 315.677C298.904 315.398 298.77 315.135 298.581 314.907C298.392 314.679 298.152 314.49 297.878 314.353C296.219 313.571 293.249 315.01 292.073 316.088C291.993 316.155 291.268 317.019 290.841 317.498C290.938 316.915 291.043 316.339 291.123 315.756C291.349 314.058 291.526 312.338 291.711 310.588C291.767 310.064 291.824 309.54 291.888 309.016C292.13 309.097 294.964 310.072 296.356 309.976C297.596 309.902 299.15 309.481 299.875 308.499C300.056 308.266 300.181 307.999 300.242 307.718C300.302 307.437 300.297 307.147 300.226 306.868C300.155 306.589 300.021 306.326 299.831 306.099C299.641 305.871 299.401 305.682 299.126 305.546C297.516 304.764 294.505 306.203 293.321 307.281C293.233 307.362 292.154 308.603 291.896 308.927C292.033 307.776 292.178 306.624 292.371 305.502C292.619 303.976 292.977 302.467 293.442 300.984C293.555 301.021 296.509 302.047 297.934 301.951C299.174 301.877 300.736 301.456 301.452 300.474C301.634 300.241 301.76 299.976 301.821 299.695C301.882 299.414 301.878 299.124 301.808 298.845C301.737 298.566 301.604 298.303 301.415 298.075C301.226 297.847 300.986 297.658 300.712 297.521C299.053 296.739 296.083 298.178 294.907 299.256C294.811 299.345 293.651 300.674 293.458 300.932C293.458 300.844 293.506 300.755 293.53 300.666C294.044 299.194 294.699 297.766 295.487 296.399C295.905 295.661 296.356 294.923 296.815 294.251C297.347 294.495 299.778 295.58 301.074 295.624C302.37 295.668 303.908 295.417 304.745 294.48C304.949 294.266 305.101 294.016 305.192 293.745C305.284 293.474 305.312 293.188 305.276 292.906C305.239 292.625 305.139 292.353 304.981 292.109C304.823 291.865 304.611 291.654 304.359 291.49C302.805 290.545 299.681 291.682 298.377 292.634C298.313 292.686 297.653 293.284 297.186 293.727C297.395 293.424 297.604 293.107 297.814 292.826C298.619 291.748 299.424 290.803 300.084 289.977C300.486 289.504 300.889 289.091 301.219 288.707C301.871 288.707 304.512 288.618 305.663 288.124C306.814 287.629 308.078 286.736 308.352 285.554C308.425 285.279 308.433 284.992 308.378 284.713C308.322 284.433 308.203 284.168 308.029 283.934C307.854 283.699 307.628 283.501 307.365 283.351C307.102 283.202 306.807 283.105 306.5 283.067C304.649 282.882 302.475 285.207 301.775 286.603C301.71 286.728 301.034 288.707 301.066 288.707H301.106C300.76 289.068 300.382 289.445 299.987 289.903C299.263 290.722 298.458 291.652 297.644 292.715C296.764 293.855 295.958 295.04 295.229 296.266C294.401 297.638 293.706 299.073 293.152 300.556C293.155 300.573 293.155 300.59 293.152 300.607C293.152 300.105 293.152 298.703 293.152 298.599C292.935 297.123 291.542 294.273 289.714 293.963C289.409 293.92 289.097 293.937 288.799 294.012C288.501 294.087 288.223 294.218 287.984 294.398C287.745 294.577 287.55 294.801 287.411 295.054C287.272 295.308 287.193 295.585 287.178 295.868C287.066 297.071 287.983 298.274 288.941 299.035C289.988 299.891 292.894 300.718 293.128 300.784C292.604 302.305 292.193 303.857 291.896 305.428C291.719 306.343 291.574 307.266 291.437 308.196C291.437 307.761 291.437 307.377 291.437 307.325C291.22 305.812 289.827 302.999 288.008 302.689C287.701 302.645 287.389 302.661 287.09 302.735C286.791 302.81 286.512 302.941 286.272 303.121C286.032 303.301 285.836 303.525 285.697 303.778C285.557 304.032 285.478 304.31 285.463 304.594C285.351 305.797 286.309 307.001 287.235 307.754C288.161 308.507 290.632 309.282 291.26 309.474L291.115 310.544C290.89 312.257 290.672 313.97 290.407 315.645C290.318 316.236 290.197 316.812 290.085 317.388C290.085 317.004 290.085 316.649 290.085 316.649C289.875 315.173 288.475 312.323 286.655 312.013C286.349 311.969 286.036 311.985 285.737 312.06C285.438 312.134 285.159 312.265 284.919 312.445C284.679 312.625 284.483 312.849 284.344 313.102C284.205 313.356 284.125 313.634 284.111 313.918C284.006 315.121 284.956 316.325 285.882 317.078C287.091 317.823 288.419 318.39 289.819 318.761C289.682 319.351 289.545 319.942 289.384 320.503C289.272 320.887 289.183 321.241 289.038 321.647C288.893 322.053 288.772 322.386 288.644 322.769C288.362 323.471 288.08 324.202 287.79 324.888C287.589 325.361 287.388 325.811 287.186 326.269C287.291 325.678 287.46 324.526 287.468 324.431C287.447 323.089 287.05 321.775 286.317 320.614C286.329 320.464 286.329 320.313 286.317 320.163C286.278 319.882 286.175 319.611 286.014 319.369C285.853 319.126 285.639 318.918 285.385 318.756C285.13 318.595 284.842 318.484 284.538 318.431C284.234 318.379 283.921 318.385 283.62 318.451C281.816 318.886 280.673 321.788 280.593 323.308C280.593 323.397 280.649 324.379 280.705 324.999C280.609 324.637 280.528 324.261 280.432 323.921C280.238 323.183 280.029 322.445 279.804 321.706C279.683 321.337 279.554 320.968 279.433 320.577C279.313 320.186 279.144 319.839 278.999 319.425C278.636 318.532 278.234 317.639 277.799 316.753C278.499 316.605 280.963 316.014 281.953 315.328C282.944 314.641 283.982 313.497 283.974 312.294C283.984 312.007 283.926 311.721 283.806 311.456C283.686 311.191 283.506 310.953 283.277 310.757C283.049 310.56 282.777 310.411 282.481 310.318C282.185 310.226 281.87 310.192 281.559 310.219C279.707 310.404 278.097 313.113 277.767 314.604C277.767 314.7 277.63 315.8 277.59 316.398C277.324 315.874 277.058 315.335 276.785 314.811C275.98 313.283 275.062 311.755 274.184 310.234C273.91 309.762 273.653 309.296 273.379 308.831C273.621 308.772 276.599 308.152 277.686 307.355C278.669 306.661 279.715 305.524 279.707 304.321C279.717 304.034 279.659 303.748 279.539 303.483C279.419 303.218 279.239 302.98 279.01 302.783C278.782 302.587 278.51 302.438 278.214 302.345C277.918 302.253 277.603 302.219 277.292 302.246C275.44 302.431 273.83 305.14 273.492 306.631C273.492 306.742 273.315 308.322 273.299 308.728C272.711 307.694 272.139 306.668 271.624 305.627C270.917 304.23 270.309 302.793 269.805 301.323C269.917 301.323 273.025 300.652 274.136 299.847C275.126 299.153 276.165 298.016 276.157 296.813C276.166 296.526 276.109 296.24 275.989 295.975C275.869 295.71 275.688 295.472 275.46 295.275C275.231 295.079 274.96 294.93 274.664 294.837C274.367 294.745 274.053 294.711 273.741 294.738C271.89 294.923 270.28 297.632 269.949 299.123C269.949 299.242 269.756 300.947 269.748 301.25C269.748 301.168 269.676 301.08 269.652 300.999C269.192 299.511 268.876 297.989 268.71 296.451C268.605 295.602 268.557 294.783 268.533 293.985C269.12 293.919 271.801 293.594 272.904 292.981C274.007 292.368 275.15 291.364 275.279 290.161C275.322 289.88 275.3 289.594 275.214 289.321C275.129 289.048 274.981 288.795 274.781 288.578C274.581 288.362 274.334 288.186 274.054 288.063C273.775 287.94 273.471 287.873 273.162 287.865C271.294 287.865 269.378 290.39 268.863 291.844C268.863 291.926 268.645 292.752 268.524 293.358C268.524 293.003 268.524 292.619 268.524 292.287C268.524 290.995 268.621 289.814 268.71 288.766C268.758 288.168 268.822 287.629 268.887 287.127C269.426 286.787 271.584 285.392 272.244 284.395C272.904 283.399 273.427 282.018 272.944 280.896C272.84 280.628 272.675 280.384 272.461 280.178C272.246 279.973 271.987 279.811 271.7 279.703C271.413 279.595 271.105 279.544 270.795 279.552C270.485 279.561 270.181 279.629 269.901 279.752C268.251 280.534 267.816 283.591 268.09 285.097C268.09 285.23 268.734 287.223 268.766 287.208C268.694 287.688 268.621 288.205 268.557 288.773C268.444 289.822 268.323 290.988 268.291 292.302C268.236 293.7 268.271 295.101 268.396 296.495C268.527 298.059 268.813 299.608 269.249 301.124C269.246 301.141 269.246 301.159 269.249 301.176C268.951 300.755 268.09 299.596 268.017 299.515C266.922 298.363 264.08 296.717 262.382 297.381C262.1 297.5 261.85 297.673 261.645 297.886C261.441 298.1 261.288 298.351 261.197 298.622C261.105 298.894 261.076 299.18 261.112 299.462C261.149 299.744 261.249 300.016 261.408 300.26C261.963 301.22 263.485 301.744 264.716 301.907Z" fill="#263238"/>
<path d="M296.678 293.874C296.678 293.874 297.266 291.881 297.29 291.756C297.515 290.279 296.992 287.193 295.317 286.455C295.035 286.338 294.729 286.278 294.419 286.277C294.109 286.276 293.803 286.335 293.52 286.45C293.236 286.565 292.983 286.733 292.775 286.944C292.567 287.155 292.41 287.403 292.314 287.673C291.864 288.803 292.435 290.198 293.12 291.15C293.9 292.28 296.67 293.874 296.678 293.874Z" fill="#263238"/>
<path d="M226.934 300.733C228.034 300.998 229.17 301.112 230.307 301.072C230.307 301.072 229.792 299.633 229.752 299.552C229.228 298.54 227.562 296.879 226.209 297.042C225.985 297.074 225.77 297.15 225.58 297.265C225.389 297.379 225.228 297.529 225.105 297.705C224.983 297.881 224.902 298.078 224.869 298.285C224.836 298.491 224.851 298.701 224.913 298.902C225.087 299.322 225.357 299.703 225.706 300.019C226.054 300.335 226.473 300.579 226.934 300.733Z" fill="#263238"/>
<path d="M227.762 307.089C228.888 307.081 230.006 306.92 231.079 306.61C231.431 307.732 231.864 308.832 232.376 309.902C232.676 310.522 232.99 311.142 233.318 311.763C233.124 311.497 232.947 311.268 232.915 311.238C232.11 310.389 230.041 309.186 228.785 309.681C228.579 309.767 228.396 309.891 228.246 310.047C228.097 310.202 227.984 310.385 227.917 310.582C227.849 310.78 227.828 310.989 227.854 311.195C227.88 311.401 227.953 311.599 228.068 311.777C228.353 312.143 228.722 312.447 229.149 312.668C229.577 312.888 230.051 313.02 230.54 313.054C231.632 313.058 232.719 312.906 233.76 312.604L234.147 313.342C234.767 314.472 235.387 315.557 235.958 316.716C236.16 317.107 236.345 317.506 236.53 317.905C236.361 317.668 236.208 317.477 236.184 317.447C235.379 316.605 233.301 315.402 232.054 315.889C231.847 315.975 231.662 316.1 231.512 316.256C231.362 316.412 231.249 316.595 231.181 316.794C231.114 316.993 231.092 317.202 231.119 317.409C231.146 317.616 231.22 317.815 231.337 317.993C231.623 318.358 231.993 318.661 232.419 318.882C232.846 319.102 233.32 319.235 233.809 319.27C234.874 319.277 235.933 319.13 236.949 318.835C237.126 319.248 237.303 319.654 237.456 320.06C237.552 320.341 237.665 320.599 237.746 320.887C237.826 321.175 237.915 321.441 237.995 321.721C238.14 322.253 238.285 322.807 238.406 323.331C238.494 323.693 238.575 324.069 238.647 324.394C238.454 323.995 238.052 323.227 238.011 323.168C237.359 322.223 235.499 320.747 234.179 321.057C233.961 321.113 233.758 321.211 233.584 321.345C233.41 321.478 233.268 321.643 233.169 321.83C233.069 322.017 233.014 322.221 233.006 322.428C232.999 322.636 233.039 322.843 233.124 323.036C233.348 323.435 233.665 323.786 234.051 324.062C234.438 324.339 234.885 324.535 235.363 324.638C236.47 324.793 237.596 324.793 238.704 324.638C238.832 325.221 238.953 325.789 239.05 326.321C239.275 327.502 239.452 328.535 239.581 329.466H240.467C240.314 328.535 240.104 327.428 239.839 326.188C239.71 325.597 239.565 324.97 239.404 324.32C240.044 324.086 240.667 323.817 241.272 323.515C242.092 324.163 243.005 324.705 243.985 325.125C243.743 325.671 243.502 326.21 243.268 326.705C242.769 327.746 242.302 328.676 241.884 329.466H242.882C243.244 328.727 243.631 327.908 244.041 326.993C244.291 326.439 244.549 325.841 244.798 325.221C245.892 325.457 247.019 325.536 248.139 325.457C248.626 325.383 249.089 325.213 249.497 324.958C249.904 324.703 250.246 324.369 250.498 323.98C250.599 323.794 250.656 323.59 250.665 323.383C250.674 323.175 250.635 322.968 250.551 322.775C250.466 322.581 250.338 322.407 250.175 322.262C250.012 322.118 249.818 322.006 249.604 321.936C248.308 321.537 246.336 322.881 245.579 323.781C245.539 323.833 245.144 324.453 244.903 324.852C245.007 324.601 245.112 324.357 245.217 324.113C245.418 323.604 245.611 323.08 245.813 322.519C245.901 322.246 245.998 321.972 246.086 321.692C246.175 321.411 246.247 321.116 246.328 320.828C246.505 320.149 246.65 319.455 246.771 318.754C247.782 319.121 248.849 319.345 249.935 319.418C250.426 319.418 250.91 319.32 251.356 319.13C251.801 318.94 252.195 318.663 252.511 318.318C252.642 318.148 252.732 317.954 252.775 317.749C252.819 317.545 252.815 317.334 252.763 317.131C252.711 316.928 252.613 316.738 252.475 316.572C252.338 316.406 252.163 316.269 251.963 316.17C250.756 315.601 248.582 316.657 247.721 317.44C247.664 317.491 247.117 318.119 246.819 318.473C246.891 318.052 246.964 317.632 247.02 317.196C247.189 315.956 247.318 314.701 247.455 313.446C247.495 313.054 247.535 312.671 247.584 312.294C248.629 312.676 249.731 312.913 250.852 312.995C251.343 312.992 251.828 312.891 252.273 312.7C252.717 312.509 253.112 312.232 253.429 311.888C253.558 311.718 253.647 311.525 253.69 311.321C253.733 311.117 253.728 310.907 253.676 310.705C253.625 310.503 253.527 310.314 253.39 310.149C253.253 309.983 253.08 309.847 252.881 309.747C251.674 309.171 249.5 310.227 248.638 311.017C248.566 311.076 247.777 311.984 247.592 312.22C247.688 311.379 247.793 310.537 247.938 309.71C248.128 308.593 248.397 307.488 248.743 306.403C249.794 306.799 250.904 307.048 252.036 307.141C252.526 307.139 253.01 307.038 253.453 306.847C253.897 306.656 254.289 306.378 254.604 306.034C254.735 305.864 254.826 305.67 254.87 305.466C254.914 305.262 254.91 305.052 254.859 304.849C254.809 304.646 254.711 304.455 254.574 304.289C254.437 304.123 254.264 303.986 254.065 303.885C252.849 303.317 250.675 304.373 249.814 305.163C249.749 305.222 248.896 306.196 248.759 306.381C248.759 306.322 248.759 306.255 248.815 306.189C249.186 305.11 249.663 304.065 250.241 303.066C250.546 302.512 250.877 301.996 251.215 301.501C252.192 301.979 253.242 302.317 254.33 302.505C254.818 302.55 255.311 302.499 255.775 302.354C256.239 302.208 256.664 301.973 257.019 301.663C257.175 301.507 257.292 301.322 257.362 301.121C257.433 300.92 257.456 300.707 257.429 300.497C257.403 300.287 257.327 300.085 257.208 299.904C257.088 299.723 256.928 299.568 256.738 299.449C255.594 298.755 253.308 299.589 252.358 300.283C252.31 300.32 251.827 300.755 251.48 301.08C251.633 300.859 251.794 300.63 251.947 300.423C252.519 299.633 253.091 298.947 253.606 298.334L254.411 297.404C255.501 297.413 256.587 297.271 257.631 296.983C258.089 296.82 258.502 296.567 258.842 296.242C259.181 295.917 259.439 295.527 259.596 295.1C259.651 294.899 259.659 294.689 259.62 294.484C259.581 294.28 259.495 294.085 259.368 293.913C259.241 293.741 259.076 293.595 258.884 293.486C258.691 293.376 258.476 293.305 258.251 293.277C256.891 293.144 255.28 294.849 254.781 295.868C254.781 295.957 254.242 297.411 254.274 297.411C254.016 297.684 253.743 297.972 253.469 298.29C252.946 298.887 252.35 299.567 251.754 300.349C251.11 301.185 250.516 302.053 249.975 302.948C249.393 303.939 248.906 304.974 248.518 306.041V306.078C248.518 305.716 248.518 304.69 248.518 304.602C248.357 303.494 247.342 301.442 246.006 301.213C245.782 301.179 245.552 301.19 245.333 301.243C245.114 301.297 244.909 301.392 244.733 301.523C244.556 301.654 244.412 301.818 244.31 302.004C244.207 302.189 244.149 302.393 244.138 302.601C244.158 303.05 244.285 303.49 244.508 303.89C244.732 304.291 245.048 304.642 245.434 304.919C246.379 305.484 247.41 305.917 248.493 306.204C248.113 307.316 247.814 308.45 247.6 309.599C247.471 310.271 247.358 310.943 247.262 311.63C247.262 311.312 247.262 311.024 247.262 310.987C247.101 309.88 246.086 307.82 244.75 307.599C244.525 307.565 244.295 307.576 244.075 307.63C243.855 307.683 243.65 307.779 243.474 307.911C243.297 308.043 243.153 308.208 243.051 308.395C242.949 308.581 242.892 308.786 242.882 308.994C242.9 309.444 243.025 309.885 243.249 310.285C243.473 310.686 243.79 311.037 244.178 311.312C245.091 311.866 246.09 312.289 247.141 312.567C247.141 312.826 247.068 313.091 247.036 313.35C246.867 314.605 246.714 315.86 246.513 317.085C246.449 317.513 246.36 317.942 246.279 318.362C246.279 318.082 246.279 317.846 246.279 317.809C246.127 316.701 245.112 314.642 243.768 314.413C243.544 314.38 243.314 314.392 243.095 314.446C242.876 314.501 242.673 314.597 242.497 314.729C242.321 314.86 242.178 315.025 242.077 315.211C241.975 315.397 241.918 315.6 241.908 315.808C241.928 316.258 242.054 316.698 242.278 317.098C242.501 317.498 242.818 317.849 243.204 318.126C244.09 318.669 245.062 319.082 246.086 319.352C245.982 319.787 245.885 320.215 245.764 320.629C245.684 320.909 245.619 321.19 245.515 321.463L245.225 322.29C245.015 322.807 244.814 323.338 244.597 323.84C244.452 324.187 244.307 324.512 244.162 324.844C244.235 324.416 244.355 323.574 244.363 323.501C244.357 322.523 244.08 321.563 243.558 320.71C243.574 320.6 243.574 320.488 243.558 320.378C243.531 320.172 243.456 319.973 243.338 319.795C243.221 319.617 243.064 319.464 242.878 319.346C242.692 319.227 242.481 319.146 242.258 319.108C242.035 319.069 241.806 319.075 241.586 319.123C240.274 319.448 239.436 321.566 239.372 322.681C239.372 322.748 239.412 323.464 239.452 323.921C239.388 323.656 239.324 323.397 239.251 323.132C239.114 322.6 238.961 322.068 238.792 321.493C238.704 321.227 238.615 320.946 238.518 320.666C238.422 320.385 238.309 320.105 238.204 319.824C237.947 319.167 237.641 318.517 237.327 317.868C238.394 317.666 239.42 317.315 240.37 316.827C240.776 316.576 241.118 316.249 241.373 315.867C241.629 315.485 241.792 315.057 241.852 314.612C241.858 314.404 241.816 314.197 241.73 314.005C241.643 313.813 241.513 313.639 241.348 313.497C241.183 313.354 240.987 313.244 240.772 313.176C240.558 313.107 240.331 313.081 240.104 313.099C238.752 313.232 237.568 315.21 237.327 316.303C237.327 316.377 237.23 317.174 237.198 317.617C237.005 317.233 236.812 316.842 236.602 316.45C235.999 315.336 235.346 314.236 234.702 313.106L234.115 312.08C235.216 311.867 236.276 311.506 237.263 311.01C237.67 310.761 238.013 310.434 238.269 310.052C238.525 309.669 238.687 309.24 238.744 308.795C238.75 308.587 238.709 308.381 238.623 308.189C238.536 307.998 238.407 307.825 238.243 307.682C238.079 307.539 237.884 307.43 237.67 307.361C237.457 307.292 237.23 307.265 237.005 307.281C235.644 307.414 234.469 309.393 234.227 310.485C234.227 310.574 234.09 311.726 234.082 312.021C233.656 311.283 233.237 310.544 232.859 309.754C232.337 308.732 231.89 307.679 231.522 306.602C232.632 306.39 233.702 306.027 234.694 305.524C235.103 305.277 235.447 304.95 235.703 304.568C235.959 304.185 236.12 303.756 236.176 303.31C236.183 303.101 236.143 302.893 236.056 302.7C235.97 302.507 235.84 302.333 235.675 302.189C235.51 302.045 235.313 301.935 235.099 301.866C234.884 301.797 234.655 301.771 234.429 301.789C233.076 301.929 231.901 303.908 231.651 305C231.651 305.089 231.514 306.329 231.506 306.558C231.486 306.493 231.461 306.429 231.434 306.366C231.098 305.277 230.869 304.163 230.749 303.036C230.669 302.416 230.637 301.818 230.613 301.242C231.721 301.147 232.806 300.899 233.833 300.504C234.269 300.298 234.65 300.006 234.95 299.65C235.251 299.295 235.463 298.883 235.572 298.445C235.604 298.238 235.588 298.028 235.525 297.828C235.462 297.628 235.353 297.442 235.207 297.283C235.06 297.124 234.878 296.996 234.673 296.906C234.468 296.816 234.245 296.767 234.018 296.761C232.657 296.761 231.249 298.607 230.878 299.67C230.878 299.729 230.717 300.334 230.629 300.785C230.629 300.519 230.629 300.246 230.629 299.995C230.629 299.05 230.693 298.186 230.757 297.418C230.798 296.983 230.846 296.584 230.894 296.222C231.773 295.667 232.557 294.995 233.221 294.229C233.503 293.862 233.695 293.442 233.783 293C233.87 292.557 233.852 292.103 233.728 291.667C233.653 291.471 233.534 291.291 233.378 291.14C233.222 290.989 233.033 290.869 232.823 290.79C232.613 290.71 232.387 290.673 232.16 290.679C231.933 290.685 231.71 290.735 231.506 290.826C230.299 291.402 229.976 293.639 230.178 294.739C230.178 294.835 230.653 296.296 230.677 296.281C230.629 296.636 230.572 297.02 230.524 297.433C230.443 298.171 230.355 299.065 230.331 300.017C230.295 301.039 230.322 302.062 230.411 303.081C230.51 304.225 230.717 305.358 231.031 306.469C231.031 306.469 231.031 306.469 231.031 306.506C230.814 306.196 230.186 305.347 230.129 305.288C229.324 304.446 227.247 303.243 225.991 303.73C225.785 303.816 225.6 303.941 225.45 304.097C225.299 304.253 225.187 304.436 225.119 304.635C225.051 304.834 225.03 305.043 225.057 305.25C225.084 305.457 225.158 305.656 225.275 305.834C225.565 306.197 225.938 306.497 226.368 306.714C226.797 306.93 227.273 307.059 227.762 307.089Z" fill="#263238"/>
<path d="M251.15 301.213C251.15 301.213 251.585 299.736 251.601 299.655C251.77 298.555 251.384 296.326 250.152 295.779C249.946 295.695 249.722 295.651 249.496 295.65C249.27 295.65 249.046 295.694 248.84 295.778C248.633 295.862 248.448 295.985 248.297 296.14C248.146 296.294 248.032 296.475 247.962 296.673C247.852 297.11 247.846 297.565 247.947 298.004C248.047 298.444 248.25 298.859 248.542 299.219C249.3 299.997 250.179 300.669 251.15 301.213Z" fill="#263238"/>
<path d="M295.543 43.0329C294.873 45.4621 295.044 48.0223 296.032 50.3585C297.02 52.6946 298.777 54.6909 301.058 56.0703C303.339 57.4497 306.032 58.1439 308.763 58.0566C311.494 57.9693 314.127 57.1048 316.298 55.5831L321.395 60.0569C321.263 60.5443 321.273 61.0546 321.423 61.5375C321.572 62.0204 321.857 62.4592 322.248 62.8105L333.318 72.7547C333.615 73.0189 333.966 73.2268 334.351 73.3666C334.735 73.5065 335.146 73.5754 335.56 73.5696C335.974 73.5638 336.382 73.4833 336.762 73.3327C337.142 73.1821 337.486 72.9644 337.774 72.692C338.062 72.4195 338.289 72.0977 338.441 71.745C338.594 71.3922 338.669 71.0153 338.663 70.6359C338.656 70.2564 338.569 69.8818 338.404 69.5335C338.24 69.1852 338.003 68.8699 337.706 68.6058L326.612 58.6542C326.212 58.3016 325.718 58.0517 325.179 57.9299C324.641 57.8081 324.077 57.8185 323.544 57.9602L318.561 53.5603C319.763 52.2088 320.627 50.6309 321.089 48.9389C321.512 47.4008 321.6 45.8014 321.349 44.232C321.098 42.6626 320.512 41.1539 319.625 39.7921C318.738 38.4303 317.567 37.2421 316.179 36.2952C314.791 35.3483 313.214 34.6614 311.536 34.2736C309.859 33.8858 308.115 33.8048 306.403 34.0351C304.692 34.2654 303.047 34.8026 301.561 35.616C300.076 36.4294 298.78 37.503 297.748 38.7756C296.715 40.0482 295.966 41.4948 295.543 43.0329V43.0329ZM318.802 48.3926C318.28 50.2944 317.155 52.0116 315.569 53.3269C313.982 54.6422 312.006 55.4966 309.89 55.782C307.774 56.0673 305.614 55.7709 303.681 54.9301C301.749 54.0893 300.132 52.742 299.035 51.0585C297.938 49.375 297.41 47.431 297.518 45.4724C297.626 43.5138 298.365 41.6285 299.642 40.055C300.918 38.4815 302.675 37.2905 304.69 36.6327C306.705 35.9748 308.887 35.8796 310.961 36.3591C313.739 37.0037 316.125 38.6327 317.595 40.8887C319.066 43.1447 319.5 45.8435 318.802 48.3926Z" stroke="#263238" stroke-miterlimit="10"/>
<path d="M52.0769 189.332C50.08 189.769 48.281 190.766 46.9294 192.183C45.5778 193.6 44.7404 195.368 44.5334 197.241C44.3264 199.114 44.76 201 45.774 202.637C46.7881 204.274 48.3325 205.582 50.193 206.378L48.7116 211.051C48.3114 211.139 47.9432 211.322 47.6438 211.581C47.3444 211.84 47.1241 212.166 47.0048 212.527L43.5832 222.767C43.4146 223.322 43.4885 223.915 43.7891 224.421C44.0897 224.927 44.5934 225.305 45.1934 225.476C45.7986 225.631 46.4456 225.563 46.9973 225.287C47.5489 225.012 47.9617 224.55 48.1481 224L51.5455 213.76C51.6664 213.393 51.6778 213.003 51.5787 212.63C51.4796 212.258 51.2736 211.916 50.982 211.641L52.4472 207.05C53.9012 207.324 55.4039 207.296 56.8442 206.966C58.2845 206.636 59.6255 206.013 60.768 205.144C61.9105 204.275 62.8252 203.181 63.4446 201.944C64.0639 200.707 64.372 199.358 64.346 197.997C64.32 196.636 63.9607 195.298 63.2945 194.081C62.6284 192.865 61.6724 191.801 60.4975 190.969C59.3225 190.137 57.9586 189.558 56.5066 189.274C55.0546 188.991 53.5517 189.011 52.1091 189.332H52.0769ZM56.2472 205.425C54.6825 205.767 53.0426 205.675 51.535 205.161C50.0273 204.648 48.7195 203.736 47.777 202.541C46.8346 201.346 46.2998 199.921 46.2402 198.447C46.1807 196.974 46.5992 195.517 47.4427 194.261C48.2861 193.005 49.5168 192.007 50.9789 191.393C52.4411 190.778 54.0691 190.576 55.657 190.81C57.2449 191.044 58.7215 191.704 59.8999 192.708C61.0783 193.712 61.9057 195.013 62.2773 196.448C62.7744 198.368 62.4225 200.39 61.2985 202.072C60.1746 203.754 58.3701 204.96 56.2794 205.425H56.2472Z" stroke="#263238" stroke-miterlimit="10"/>
<path d="M320.493 121.295H297.145C295.629 121.295 294.175 121.847 293.103 122.83C292.031 123.813 291.429 125.147 291.429 126.537V138.386C291.429 139.776 292.031 141.109 293.103 142.092C294.175 143.075 295.629 143.627 297.145 143.627H313.408L312.603 151.01L320.171 143.627H320.493C321.243 143.627 321.987 143.491 322.68 143.228C323.374 142.965 324.004 142.579 324.534 142.092C325.065 141.605 325.486 141.027 325.774 140.391C326.061 139.755 326.209 139.074 326.209 138.386V126.537C326.209 125.848 326.061 125.167 325.774 124.531C325.486 123.895 325.065 123.317 324.534 122.83C324.004 122.344 323.374 121.958 322.68 121.694C321.987 121.431 321.243 121.295 320.493 121.295V121.295Z" stroke="#263238" stroke-miterlimit="10"/>
<path d="M53.7677 149.348H69.5877C70.0962 149.348 70.5998 149.44 71.0696 149.619C71.5394 149.797 71.9663 150.059 72.3259 150.388C72.6855 150.718 72.9708 151.109 73.1654 151.54C73.36 151.971 73.4601 152.433 73.4601 152.899V160.924C73.4601 161.39 73.36 161.852 73.1654 162.283C72.9708 162.714 72.6855 163.105 72.3259 163.435C71.9663 163.765 71.5394 164.026 71.0696 164.205C70.5998 164.383 70.0962 164.475 69.5877 164.475H58.5741L59.1457 169.465L53.9851 164.475H53.7677C52.7407 164.475 51.7557 164.101 51.0295 163.435C50.3033 162.769 49.8953 161.866 49.8953 160.924V152.899C49.8953 151.957 50.3033 151.054 51.0295 150.388C51.7557 149.722 52.7407 149.348 53.7677 149.348Z" stroke="#263238" stroke-miterlimit="10"/>
<path d="M170.706 14.0717H186.526C187.553 14.0717 188.538 14.4459 189.264 15.1118C189.991 15.7777 190.399 16.6809 190.399 17.6227V25.6475C190.399 26.5892 189.991 27.4924 189.264 28.1584C188.538 28.8243 187.553 29.1984 186.526 29.1984H175.513L176.084 34.189L170.924 29.1984H170.706C169.679 29.1984 168.694 28.8243 167.968 28.1584C167.242 27.4924 166.834 26.5892 166.834 25.6475V17.6227C166.834 16.6809 167.242 15.7777 167.968 15.1118C168.694 14.4459 169.679 14.0717 170.706 14.0717V14.0717Z" stroke="#263238" stroke-miterlimit="10"/>
<path d="M149.211 30.372L187.919 129.563L271.044 31.9371" stroke="#263238" stroke-miterlimit="10"/>
<path d="M304.061 95.1086L187.919 129.563L265.916 209.958" stroke="#263238" stroke-miterlimit="10"/>
<path d="M98.5382 206.828L187.919 129.563L66.0852 110.767" stroke="#263238" stroke-miterlimit="10"/>
<path d="M314 100.425C317.015 95.1438 314.79 88.6216 309.031 85.8572C303.271 83.0927 296.159 85.1329 293.144 90.414C290.129 95.6952 292.354 102.217 298.113 104.982C303.873 107.746 310.985 105.706 314 100.425Z" fill="#263238" stroke="#263238" stroke-width="0.5" stroke-miterlimit="10"/>
<path d="M307.467 94.6734H299.794C299.075 94.6734 298.385 94.9355 297.876 95.4021C297.367 95.8687 297.081 96.5015 297.081 97.1613V103.067C298.956 104.409 301.271 105.13 303.649 105.112C306.027 105.095 308.329 104.34 310.18 102.971V97.1613C310.18 96.5015 309.894 95.8687 309.385 95.4021C308.876 94.9355 308.186 94.6734 307.467 94.6734Z" fill="#2C7250" stroke="#263238" stroke-miterlimit="10"/>
<path d="M303.497 93.5879C304.269 93.5879 305.024 93.3779 305.667 92.9845C306.309 92.591 306.809 92.0318 307.105 91.3776C307.4 90.7233 307.478 90.0034 307.327 89.3089C307.176 88.6143 306.804 87.9763 306.258 87.4756C305.712 86.9748 305.016 86.6338 304.259 86.4957C303.502 86.3575 302.716 86.4284 302.003 86.6994C301.289 86.9704 300.68 87.4294 300.251 88.0182C299.822 88.607 299.593 89.2992 299.593 90.0074C299.593 90.957 300.004 91.8677 300.736 92.5392C301.468 93.2106 302.462 93.5879 303.497 93.5879Z" fill="#2C7250" stroke="#263238" stroke-miterlimit="10"/>
<path d="M277.969 210.291C280.478 204.792 277.652 198.469 271.655 196.167C265.659 193.866 258.763 196.458 256.253 201.957C253.743 207.456 256.57 213.779 262.567 216.08C268.563 218.381 275.459 215.789 277.969 210.291Z" fill="#263238" stroke="#263238" stroke-width="0.5" stroke-miterlimit="10"/>
<path d="M271.06 205.411H263.388C263.032 205.41 262.679 205.473 262.35 205.597C262.021 205.722 261.722 205.904 261.47 206.135C261.218 206.365 261.018 206.639 260.881 206.94C260.745 207.242 260.675 207.565 260.675 207.891V213.797C262.55 215.139 264.864 215.859 267.242 215.842C269.621 215.825 271.922 215.07 273.774 213.701V207.891C273.774 207.565 273.703 207.242 273.567 206.94C273.43 206.639 273.23 206.365 272.978 206.135C272.726 205.904 272.427 205.722 272.098 205.597C271.769 205.473 271.416 205.41 271.06 205.411Z" fill="#2C7250" stroke="#263238" stroke-miterlimit="10"/>
<path d="M267.035 204.318C267.807 204.318 268.562 204.108 269.204 203.715C269.846 203.321 270.347 202.762 270.642 202.108C270.938 201.454 271.015 200.734 270.865 200.039C270.714 199.345 270.342 198.707 269.796 198.206C269.25 197.705 268.554 197.364 267.797 197.226C267.039 197.088 266.254 197.159 265.541 197.43C264.827 197.701 264.217 198.16 263.788 198.748C263.359 199.337 263.13 200.03 263.13 200.738C263.13 201.208 263.231 201.673 263.428 202.108C263.624 202.542 263.911 202.937 264.274 203.269C264.637 203.602 265.067 203.866 265.541 204.046C266.015 204.226 266.522 204.318 267.035 204.318Z" fill="#2C7250" stroke="#263238" stroke-miterlimit="10"/>
<path d="M148.703 37.3412C153.319 37.3412 157.06 33.9103 157.06 29.6782C157.06 25.446 153.319 22.0152 148.703 22.0152C144.088 22.0152 140.347 25.446 140.347 29.6782C140.347 33.9103 144.088 37.3412 148.703 37.3412Z" fill="#263238" stroke="#263238" stroke-width="0.5" stroke-miterlimit="10"/>
<path d="M151.473 29.1984H146.031C145.52 29.1984 145.031 29.3843 144.67 29.7151C144.309 30.046 144.106 30.4948 144.106 30.9628V35.1043C145.438 36.053 147.079 36.5624 148.764 36.5503C150.45 36.5383 152.082 36.0054 153.397 35.0379V30.9259C153.387 30.4643 153.179 30.025 152.82 29.702C152.46 29.3791 151.976 29.1983 151.473 29.1984Z" fill="#2C7250" stroke="#263238" stroke-miterlimit="10"/>
<path d="M148.687 28.386C149.235 28.386 149.771 28.2371 150.226 27.958C150.682 27.679 151.037 27.2823 151.246 26.8183C151.456 26.3542 151.511 25.8436 151.404 25.351C151.297 24.8584 151.033 24.4059 150.646 24.0507C150.258 23.6955 149.765 23.4537 149.228 23.3557C148.691 23.2577 148.134 23.308 147.628 23.5002C147.122 23.6924 146.689 24.0179 146.385 24.4355C146.08 24.8532 145.918 25.3442 145.918 25.8464C145.918 26.52 146.21 27.1659 146.729 27.6422C147.249 28.1184 147.953 28.386 148.687 28.386Z" fill="#2C7250" stroke="#263238" stroke-miterlimit="10"/>
<path d="M104.969 208.526C106.746 204.62 104.734 200.133 100.475 198.503C96.2155 196.873 91.3217 198.718 89.5444 202.624C87.767 206.53 89.7791 211.017 94.0384 212.647C98.2978 214.277 103.192 212.432 104.969 208.526Z" fill="#263238" stroke="#263238" stroke-width="0.5" stroke-miterlimit="10"/>
<path d="M100.028 205.057H94.5856C94.3315 205.056 94.0798 205.101 93.8449 205.19C93.61 205.278 93.3965 205.409 93.2169 205.573C93.0373 205.738 92.895 205.934 92.7983 206.149C92.7015 206.365 92.6523 206.595 92.6533 206.828V211.014C93.9834 211.969 95.6267 212.481 97.3154 212.469C99.004 212.457 100.638 211.921 101.952 210.948V206.828C101.953 206.596 101.904 206.366 101.808 206.151C101.712 205.936 101.57 205.741 101.391 205.576C101.213 205.411 101 205.281 100.766 205.192C100.532 205.103 100.281 205.057 100.028 205.057Z" fill="#2C7250" stroke="#263238" stroke-miterlimit="10"/>
<path d="M97.2102 204.281C97.7579 204.281 98.2934 204.132 98.7488 203.853C99.2043 203.574 99.5592 203.177 99.7689 202.713C99.9785 202.249 100.033 201.739 99.9265 201.246C99.8196 200.753 99.5558 200.301 99.1685 199.946C98.7812 199.591 98.2877 199.349 97.7505 199.251C97.2132 199.153 96.6564 199.203 96.1503 199.395C95.6443 199.587 95.2117 199.913 94.9074 200.331C94.6031 200.748 94.4407 201.239 94.4407 201.742C94.4407 202.415 94.7325 203.061 95.2518 203.537C95.7712 204.014 96.4757 204.281 97.2102 204.281Z" fill="#2C7250" stroke="#263238" stroke-miterlimit="10"/>
<path d="M278.669 31.9068C280.35 27.9654 278.229 23.5206 273.93 21.9791C269.632 20.4376 264.785 22.3832 263.104 26.3247C261.423 30.2661 263.545 34.7109 267.843 36.2524C272.141 37.7938 276.988 35.8483 278.669 31.9068Z" fill="#263238" stroke="#263238" stroke-width="0.5" stroke-miterlimit="10"/>
<path d="M273.677 28.6004H268.226C267.974 28.6004 267.724 28.646 267.49 28.7347C267.257 28.8234 267.044 28.9533 266.866 29.1172C266.687 29.281 266.545 29.4755 266.449 29.6896C266.352 29.9036 266.302 30.1331 266.302 30.3648V34.558C267.635 35.5072 269.277 36.017 270.964 36.0049C272.651 35.9929 274.285 35.4597 275.601 34.4916V30.3648C275.601 30.1331 275.551 29.9036 275.455 29.6896C275.358 29.4755 275.216 29.281 275.037 29.1172C274.859 28.9533 274.647 28.8234 274.413 28.7347C274.18 28.646 273.93 28.6004 273.677 28.6004Z" fill="#2C7250" stroke="#263238" stroke-miterlimit="10"/>
<path d="M270.859 27.8252C271.407 27.8252 271.943 27.6763 272.398 27.3972C272.853 27.1182 273.208 26.7215 273.418 26.2575C273.628 25.7935 273.682 25.2828 273.576 24.7902C273.469 24.2976 273.205 23.8451 272.818 23.4899C272.43 23.1347 271.937 22.8929 271.4 22.7949C270.862 22.6969 270.306 22.7472 269.799 22.9394C269.293 23.1316 268.861 23.4571 268.557 23.8747C268.252 24.2924 268.09 24.7834 268.09 25.2856C268.09 25.9592 268.382 26.6051 268.901 27.0814C269.42 27.5577 270.125 27.8252 270.859 27.8252Z" fill="#2C7250" stroke="#263238" stroke-miterlimit="10"/>
<path d="M79.1131 114.375C82.3891 107.256 78.7517 99.0505 70.9888 96.0464C63.2259 93.0424 54.2771 96.3778 51.0011 103.496C47.7251 110.615 51.3624 118.821 59.1254 121.825C66.8883 124.829 75.8371 121.493 79.1131 114.375Z" fill="#263238" stroke="#263238" stroke-width="0.5" stroke-miterlimit="10"/>
<path d="M70.119 107.991H60.1762C59.2445 107.991 58.3508 108.33 57.6913 108.934C57.0317 109.537 56.6601 110.356 56.658 111.21V118.858C59.0887 120.592 62.0863 121.524 65.1659 121.503C68.2456 121.481 71.2274 120.508 73.6292 118.74V111.21C73.6292 110.356 73.2594 109.538 72.6011 108.934C71.9428 108.33 71.05 107.991 70.119 107.991Z" fill="#2C7250" stroke="#263238" stroke-miterlimit="10"/>
<path d="M64.9583 106.574C65.9583 106.574 66.9358 106.302 67.7672 105.793C68.5987 105.283 69.2467 104.559 69.6294 103.712C70.012 102.865 70.1122 101.933 69.9171 101.033C69.722 100.134 69.2405 99.3079 68.5334 98.6595C67.8263 98.0111 66.9254 97.5696 65.9446 97.3907C64.9639 97.2118 63.9473 97.3036 63.0235 97.6545C62.0996 98.0054 61.31 98.5997 60.7544 99.3621C60.1989 100.124 59.9023 101.021 59.9023 101.938C59.9023 103.167 60.435 104.347 61.3832 105.216C62.3314 106.086 63.6174 106.574 64.9583 106.574Z" fill="#2C7250" stroke="#263238" stroke-miterlimit="10"/>
<path d="M114.688 53.2946C114.688 53.2503 114.688 53.206 114.688 53.1617C114.46 51.2459 113.637 49.4304 112.317 47.9308C110.997 46.4311 109.235 45.3103 107.241 44.7014C105.218 44.0716 103.033 44.0227 100.978 44.5612C101.433 43.1444 101.588 41.6611 101.437 40.1907C101.138 37.2505 99.6307 34.5245 97.2211 32.5654C94.8115 30.6062 91.6796 29.5606 88.4605 29.6404C85.2413 29.7202 82.1756 30.9195 79.885 32.9951C77.5943 35.0708 76.2501 37.8675 76.1248 40.8183C75.9396 40.8183 75.7545 40.8183 75.5693 40.8183C72.2021 40.8183 68.9727 42.0448 66.5917 44.2282C64.2107 46.4115 62.8731 49.3727 62.8731 52.4604C62.87 53.503 63.0216 54.5412 63.3239 55.5463C63.75 56.8961 64.645 58.0815 65.8729 58.9223C67.1008 59.7632 68.5945 60.2134 70.1269 60.2046H107.628C108.597 60.2088 109.557 60.0295 110.447 59.678C111.337 59.3265 112.139 58.8103 112.802 58.1617C113.464 57.5131 113.974 56.7461 114.299 55.9086C114.623 55.0712 114.756 54.1813 114.688 53.2946V53.2946Z" stroke="#263238" stroke-miterlimit="10"/>
<path d="M307.289 171.466C307.286 171.442 307.286 171.417 307.289 171.392C307.167 170.356 306.723 169.374 306.009 168.562C305.295 167.751 304.342 167.144 303.264 166.815C302.172 166.474 300.991 166.448 299.882 166.741C300.132 165.976 300.219 165.174 300.14 164.379C300.021 162.76 299.224 161.246 297.915 160.155C296.606 159.063 294.888 158.477 293.119 158.521C291.35 158.565 289.669 159.235 288.426 160.39C287.184 161.545 286.477 163.096 286.454 164.719H286.156C284.338 164.721 282.595 165.384 281.311 166.563C280.026 167.743 279.304 169.342 279.304 171.008C279.306 171.569 279.388 172.128 279.546 172.67C279.774 173.4 280.256 174.042 280.919 174.497C281.582 174.953 282.389 175.198 283.217 175.194H303.457C303.982 175.2 304.502 175.105 304.985 174.917C305.468 174.728 305.904 174.45 306.264 174.1C306.624 173.75 306.901 173.335 307.077 172.882C307.254 172.428 307.326 171.946 307.289 171.466V171.466Z" stroke="#263238" stroke-miterlimit="10"/>
<path d="M129.285 228.355C129.285 228.355 129.285 228.311 129.285 228.289C129.163 227.252 128.719 226.269 128.005 225.458C127.292 224.646 126.338 224.04 125.259 223.711C124.167 223.37 122.987 223.344 121.878 223.638C122.125 222.872 122.209 222.07 122.127 221.275C121.955 219.749 121.186 218.331 119.962 217.285C118.738 216.239 117.142 215.634 115.469 215.583C113.672 215.543 111.929 216.154 110.619 217.282C109.308 218.411 108.534 219.967 108.465 221.615H108.167C107.266 221.614 106.374 221.776 105.541 222.092C104.708 222.407 103.952 222.871 103.315 223.455C102.677 224.039 102.172 224.733 101.828 225.496C101.484 226.26 101.307 227.078 101.308 227.905C101.308 228.466 101.392 229.025 101.557 229.566C101.783 230.297 102.265 230.941 102.928 231.397C103.591 231.853 104.4 232.097 105.229 232.091H125.46C125.985 232.095 126.506 231.999 126.988 231.81C127.471 231.621 127.906 231.342 128.265 230.991C128.624 230.64 128.9 230.225 129.076 229.771C129.251 229.317 129.322 228.835 129.285 228.355V228.355Z" stroke="#263238" stroke-miterlimit="10"/>
<path d="M244.492 36.0566C244.496 36.0346 244.496 36.0122 244.492 35.9902C244.373 34.9529 243.93 33.9693 243.216 33.1574C242.502 32.3455 241.547 31.7398 240.467 31.4131C239.375 31.0691 238.195 31.0408 237.086 31.3319C237.336 30.5694 237.421 29.7693 237.335 28.9768C237.216 27.3581 236.419 25.8442 235.11 24.7524C233.801 23.6605 232.083 23.0752 230.314 23.1191C228.545 23.163 226.864 23.8326 225.621 24.9878C224.379 26.143 223.672 27.6941 223.649 29.3164H223.351C222.297 29.3188 221.257 29.5437 220.313 29.9736C219.369 30.4036 218.545 31.0272 217.906 31.796C217.267 32.5648 216.829 33.4582 216.627 34.407C216.425 35.3558 216.464 36.3346 216.741 37.2674C216.969 37.9976 217.451 38.6395 218.114 39.0953C218.777 39.5511 219.584 39.7958 220.412 39.7922H240.652C241.179 39.7997 241.701 39.7065 242.186 39.5185C242.672 39.3306 243.109 39.052 243.47 38.7006C243.831 38.3491 244.109 37.9325 244.285 37.4773C244.461 37.0221 244.532 36.5383 244.492 36.0566V36.0566Z" stroke="#263238" stroke-miterlimit="10"/>
<path d="M249.237 184.273C283.404 152.944 283.404 102.148 249.237 70.8179C215.071 39.488 159.676 39.488 125.51 70.8179C91.3431 102.148 91.3432 152.944 125.51 184.274C159.676 215.603 215.071 215.603 249.237 184.273Z" fill="white" stroke="#263238" stroke-miterlimit="10"/>
<path d="M184.224 90.4065L192.532 93.832L194.811 97.2574L198.554 98.5937L198.965 102.211L197.516 104.3L194.609 104.876L188.378 102.588V101.849L191.904 100.513L190.665 96.5192L185.029 94.6145L182.541 91.5655L184.224 90.4065ZM236.554 178.369L229.912 175.895L221.813 173.23H215.373L209.351 172.086L202.701 173.415L198.965 173.607H196.687L192.323 175.895L188.137 177.416L182.501 174.183L183.95 168.845L180.424 167.516H176.27L175.65 165.804L176.06 162.371L174.611 160.473L171.705 160.85L170.9 162.755L167.373 162.947L164.258 159.521L163.01 154.951L166.125 149.614L172.148 149.998L173.814 151.334H176.302L179.417 149.614L182.114 150.352L185.85 156.258L187.307 156.066L186.889 151.688L185.721 149.429L186.132 145.812L193.812 142.763L194.851 135.72L198.176 133.24L200.873 128.862L202.95 128.485L207.724 125.628L207.934 124.107L204.617 124.292L203.989 122.771H201.71L198.176 123.509L199.834 121.036L207.08 119.132L208.739 117.419L211.645 121.605L213.521 123.318L216.427 122.579L215.179 120.106L210.816 117.249L205.832 112.081L200.648 108.841L195.664 108.102L193.168 105.821L189.843 105.083L189.433 105.821L189.014 111.343L189.819 113.24L187.951 119.338L183.813 116.312L184.433 113.646L180.086 111.727L178.202 109.667L179.24 104.913L185.262 100.912L185.681 96.342L183.395 96.534L181.937 94.8212L181.317 91.9642L179.86 91.7722L179.055 94.8212L176.777 95.1977L175.738 88.5535L174.048 87.52L171.141 86.3757L167.824 87.8965L171.97 91.5139L172.775 94.7548L165.296 89.587L160.103 84.4193L159.693 79.2516L154.323 77.8342L150.169 80.3147C149.168 80.8704 148.136 81.378 147.077 81.8355C145.438 82.1937 143.772 82.4405 142.094 82.5737L141.289 85.8146L136.514 85.9992L136.933 88.0958L144.614 89.2401L148.558 93.234V99.8782L146.272 105.784L146.691 112.067L140.878 121.391L139.63 135.292L141.442 143.331L144.139 149.429L147.254 149.806L146.216 146.764L144.557 144.476L143.519 140.29L145.386 139.906L148.293 146.764L150.37 152.855V157.801L154.315 162.186L161.375 166.941L172.172 169.613L175.497 172.463L177.984 175.512L181.728 177.608L186.293 178.745L190.858 178.561C190.858 178.561 190.656 180.465 190.656 181.418C190.656 182.37 187.75 185.603 187.75 185.603L185.472 189.398L187.13 193.584L191.703 195.297L198.144 201.394L201.05 202.531V205.388L201.412 206.717C217.562 204.324 232.651 197.811 244.951 187.921L245.064 186.541L250.7 177.21L248.003 175.497L236.554 178.369ZM258.179 103.163L255.893 99.5386L252.986 95.3528L252.181 89.6387L255.917 90.2145L256.126 88.3099L253.421 88.1179L255.707 87.1656L258.203 85.8368V83.9321L255.707 80.8831L255.176 76.7858C243.11 63.2449 226.55 53.6887 208.017 49.5709C189.484 45.4532 169.991 46.9993 152.503 53.974L157.286 57.082L154.323 60.5075L150.378 61.2458L149.967 66.4135L148.301 66.9819L146.224 69.0638L146.433 72.4893L149.967 72.8731L148.51 76.1067H152.045L158.059 69.0638L158.686 66.0148L164.499 65.6383L165.948 63.3498L171.97 62.7813L172.598 59.5404L176.954 59.3558C176.954 59.3558 180.07 57.8277 180.698 57.8277C181.897 58.0665 183.075 58.3848 184.224 58.78L187.339 61.0686H191.703L195.439 58.972L200.213 59.3558C200.9 59.7654 201.684 60.0185 202.499 60.0941C203.538 60.0941 206.654 58.7579 206.654 58.7579L212.668 62.1833L215.163 63.9034V66.7531L218.279 67.137L219.318 65.4242L222.015 66.5685L221.805 68.0893L215.582 69.6101L219.108 73.8033L226.579 77.6127L229.695 81.4147L234.268 81.7985L235.307 79.8939L236.965 79.51L231.563 75.708L228.246 75.3241L230.943 74.5859L228.455 71.345L231.982 71.1604L236.546 73.4416L237.585 78.0113L239.871 80.4845L241.739 86.0065L246.312 89.0555V95.338L251.086 98.195L250.877 100.292L250.257 102.765L251.497 106.19L251.915 107.903L255.442 108.479L257.108 105.238L258.179 103.163ZM260.876 83.969V85.0616L259.789 88.1179L260.409 90.783L262.696 91.5212V95.1387L260.208 94.1863L259.596 104.5L257.108 108.685L258.767 114.023L261.464 116.304V126.588L264.169 134.583L267.075 140.674L271.849 141.818L273.508 138.009L274.184 137.521C274.634 134.213 274.86 130.882 274.86 127.548C274.886 112.086 270.017 96.9499 260.844 83.9764L260.876 83.969ZM212.909 82.7804L199.223 77.2583L193.201 77.4503L191.751 81.0677L189.256 78.5872L184.691 79.5395L184.272 85.8294L188.008 88.3025L190.713 84.6851L193.772 87.52L200.213 92.6877L201.461 98.2098L206.855 104.492L215.582 103.163L215.373 100.306L213.505 97.0655L213.094 89.4542L215.171 86.2133L212.909 82.7804ZM224.124 86.9663L221.008 86.228L218.311 88.3246L219.76 93.8467H222.465L224.124 86.9663ZM243.446 90.5837L236.385 87.1582L234.928 84.877L233.27 85.4455L234.719 89.2548L235.967 94.2011L239.082 95.3454L239.702 94.6071L237.835 91.7501L243.237 93.6548L243.446 90.5837ZM182.815 159.322L182.01 160.06L188.241 161.773L190.737 164.438L194.682 164.822L196.131 162.725L191.357 161.987L182.815 159.322ZM201.332 162.939L196.968 164.084L197.596 165.604H202.99L204.029 164.084L202.161 164.268L201.332 162.939Z" fill="#2C7250" stroke="#263238" stroke-miterlimit="10"/>
<path d="M249.323 227.049C249.25 229.124 249.521 231.198 250.128 233.199C251.086 236.004 252.036 238.639 252.994 239.695C253.952 240.751 255.49 238.994 254.145 236.882C252.801 234.771 253.574 232.497 254.339 232.497C255.104 232.497 261.23 236.004 262.188 237.237C263.146 238.47 266.02 241.629 266.02 239.518C266.02 237.407 261.617 233.021 260.852 231.789C260.087 230.556 255.868 225.292 255.868 225.292L249.323 227.049Z" fill="white" stroke="#263238" stroke-linejoin="round"/>
<path d="M252.036 220.545L255.868 225.292L248.59 228.975L245.145 225.114L252.036 220.545Z" fill="#2C7250" stroke="#263238" stroke-linejoin="round"/>
<path d="M211.436 318.894C211.436 318.894 208.561 324.689 207.41 326.276C206.259 327.864 205.301 328.558 203.385 328.912C201.469 329.266 198.216 329.613 198.216 331.016C198.238 331.887 198.517 332.736 199.021 333.474C199.021 333.474 208.022 335.231 211.097 334.53C214.173 333.829 217.224 329.96 217.224 329.96L219.14 331.016L224.695 326.099C224.346 324.372 223.69 322.708 222.755 321.175C221.032 318.015 220.074 315.734 220.074 315.734C220.074 315.734 215.839 318.894 211.436 318.894Z" fill="#616161" stroke="#263238" stroke-linejoin="round"/>
<path d="M223.472 322.63C221.459 324.365 216.806 328.536 215.534 329.562C213.923 330.868 210.623 333.482 208.095 333.482C206.275 333.482 201.195 332.81 198.434 332.426C198.557 332.792 198.73 333.141 198.949 333.467C198.949 333.467 207.95 335.224 211.025 334.523C214.101 333.821 217.152 329.953 217.152 329.953L219.068 331.009L224.623 326.092C224.412 324.895 224.024 323.731 223.472 322.63Z" stroke="#263238" stroke-linejoin="round"/>
<path d="M196.501 295.536C196.501 295.536 200.14 302.556 203.747 306.772C207.354 310.987 211.404 320.474 211.404 320.474C211.404 320.474 214.664 321.529 216.959 319.942C218.417 318.852 219.486 317.387 220.026 315.734C220.026 315.734 215.429 302.734 213.706 297.116C211.983 291.498 207.765 279.198 205.849 276.216C204.397 274.019 202.811 271.899 201.099 269.867C201.099 269.867 198.989 281.457 198.031 285.843C197.073 290.228 196.501 295.536 196.501 295.536Z" fill="#263238" stroke="#263238" stroke-linejoin="round"/>
<path d="M179.45 214.75L179.643 225.986C179.643 225.986 176.423 246.716 179.071 257.25C181.72 267.785 185.963 279.398 185.963 279.398C185.963 279.398 183.862 298.718 183.089 303.457C182.316 308.197 179.063 317.159 179.063 317.159C179.063 317.159 184.619 319.795 185.577 319.795H187.493C187.493 319.795 193.233 305.569 194.384 303.457C195.535 301.346 199.553 297.315 200.897 288.53C202.242 279.745 202.628 270.605 202.628 270.605C202.628 270.605 212.201 259.362 214.503 255.84C216.806 252.319 220.437 245.121 220.437 245.121C220.437 245.121 224.655 235.11 224.076 225.454C223.496 215.798 220.252 210.881 220.252 210.881C220.252 210.881 201.477 214.919 192.669 214.919C183.862 214.919 179.45 214.75 179.45 214.75Z" fill="#263238" stroke="#263238" stroke-linejoin="round"/>
<path d="M184.336 151.673C184.336 151.673 188.056 155.084 187.492 156.273C186.929 157.461 177.284 157.978 175.239 160.193C173.194 162.408 164.467 190.505 164.467 190.505C164.467 190.505 154.065 187.774 153.139 187.095C152.213 186.415 151.094 186.925 150.539 188.97C149.983 191.015 144.412 195.614 145.153 196.802C145.894 197.991 156.11 202.59 161.126 203.786C164.18 204.507 167.288 205.018 170.425 205.314L169.684 214.004C169.684 214.004 179.152 218.942 197.54 216.728C215.928 214.513 223.56 210.94 223.56 210.94L221.338 193.399C221.338 193.399 233.414 214.173 235.451 217.761C237.488 221.349 240.089 226.62 242.319 227.299C244.549 227.979 252.535 223.21 252.72 221.172C252.906 219.134 246.038 209.249 240.644 200.737C235.25 192.225 227.827 168.21 226.716 163.087C225.605 157.963 222.626 153.718 219.47 153.039C216.314 152.36 207.772 152.353 204.053 151.673C200.333 150.994 195.141 145.376 192.725 138.223L184.336 151.673Z" fill="#2C7250" stroke="#263238" stroke-miterlimit="10"/>
<path d="M177.67 167.524C178.612 165.693 179.337 164.445 179.337 164.445" stroke="#263238" stroke-miterlimit="10"/>
<path d="M170.424 205.315C170.424 205.315 172.654 183.352 173.58 178.074C174.166 175.463 175.06 172.918 176.245 170.484" stroke="#263238" stroke-miterlimit="10"/>
<path d="M215.163 173.267C214.89 172.056 214.632 170.868 214.423 169.724" stroke="#263238" stroke-miterlimit="10"/>
<path d="M221.298 193.399C221.298 193.399 218.214 185.02 215.984 176.56" stroke="#263238" stroke-miterlimit="10"/>
<path d="M182.501 157.735C183.395 159.492 186.261 163.043 194.948 162.902C205.196 162.747 209.705 156.258 211.363 152.309C208.913 152.217 206.469 152 204.045 151.659C200.334 150.98 195.133 145.362 192.718 138.208L184.337 151.674C184.337 151.674 188.056 155.084 187.493 156.273C187.235 156.827 184.997 157.24 182.501 157.735Z" fill="white" stroke="#263238" stroke-miterlimit="10"/>
<path d="M191.284 143.073L188.756 144.549L184.336 151.651C185.389 152.621 186.323 153.693 187.122 154.848C191.284 150.308 191.284 143.073 191.284 143.073Z" fill="#263238" stroke="#263238" stroke-linejoin="round"/>
<path d="M162.8 135.506C162.8 135.506 166.326 141.124 167.252 143.679C168.609 146.809 171.194 149.36 174.498 150.832C177.839 152.191 179.514 153.386 182.484 153.556C186.743 153.8 189.907 148.278 191.582 144.018C193.256 139.758 193.256 139.079 193.256 139.079C193.256 139.079 195.849 135.506 195.849 131.756C195.849 128.006 191.212 123.753 186.011 121.539C180.81 119.324 177.284 116.09 171.898 120.52C166.511 124.949 162.8 135.506 162.8 135.506Z" fill="white" stroke="#263238" stroke-miterlimit="10"/>
<path d="M172.083 140.947C172.478 141.933 172.727 142.963 172.824 144.01C172.824 145.206 174.499 145.716 175.98 143.161" stroke="#263238" stroke-miterlimit="10"/>
<path d="M176.35 146.58C176.35 146.58 180.995 147.259 181.921 142.15" stroke="#263238" stroke-miterlimit="10"/>
<path d="M177.3 135.041C177.734 135.72 177.751 136.451 177.3 136.68C176.849 136.909 176.189 136.532 175.754 135.853C175.319 135.174 175.311 134.436 175.754 134.214C176.197 133.993 176.865 134.362 177.3 135.041Z" fill="#263238"/>
<path d="M169.805 138.459C170.239 139.138 170.255 139.876 169.805 140.098C169.354 140.319 168.694 139.95 168.267 139.271C167.84 138.592 167.816 137.853 168.267 137.632C168.718 137.411 169.378 137.765 169.805 138.459Z" fill="#263238"/>
<path d="M171.979 132.768C171.979 132.768 172.784 130.095 178.009 130.449" stroke="#263238" stroke-miterlimit="10"/>
<path d="M168.082 135.447C168.082 135.447 165.167 135.447 165.361 137.588" stroke="#263238" stroke-miterlimit="10"/>
<path d="M176.165 123.236C176.165 123.236 173.749 125.791 170.964 128.345C168.178 130.899 163.541 134.65 163.541 139.241C163.541 143.833 163.726 144.35 163.726 144.35C163.726 144.35 155.74 140.607 153.51 135.491C151.28 130.375 156.295 118.63 162.422 113.344C168.549 108.058 175.794 107.047 183.781 107.556C191.767 108.065 199.754 115.389 201.799 122.712C203.844 130.036 199.754 138.038 198.45 139.396C197.145 140.755 193.064 140.932 193.064 140.932C193.935 138.342 194.128 135.601 193.627 132.929C192.693 129.009 190.093 129.866 189.722 131.564C189.352 133.262 189.167 133.948 189.167 133.948C189.167 133.948 185.455 131.564 181.551 129.009C179.254 127.532 177.401 125.546 176.165 123.236Z" fill="#263238" stroke="#263238" stroke-linejoin="round"/>
<path d="M140.886 192.041L145.894 185.227L148.309 187.442L140.886 192.041Z" fill="#2C7250" stroke="#263238" stroke-linejoin="round"/>
<path d="M158.59 181.994L146.924 182.038L135.806 162.4L147.471 162.356L158.59 181.994Z" fill="#263238" stroke="#263238" stroke-linejoin="round"/>
<path d="M137.73 171.939C137.73 171.939 140.701 174.493 140.886 175.689C141.071 176.885 142.552 181.477 143.301 183.692C144.05 185.906 146.827 188.291 146.827 188.291L149.242 186.076L148.309 182.326C149.199 181.602 150.129 180.92 151.094 180.281C152.213 179.602 153.509 177.727 152.769 177.727C152.206 177.742 151.646 177.802 151.094 177.904C151.094 177.904 152.769 175.519 151.658 175.35C150.92 175.239 150.175 175.18 149.428 175.172C149.428 175.172 151.279 173.135 149.798 172.958C148.317 172.78 143.108 175.342 143.108 175.342L140.886 172.271C140.412 172.022 139.888 171.864 139.345 171.807C138.802 171.75 138.253 171.795 137.73 171.939Z" fill="white" stroke="#263238" stroke-linejoin="round"/>
<path d="M138.342 170.816C138.183 170.943 138.065 171.107 138.003 171.291C137.94 171.475 137.935 171.671 137.988 171.858C138.04 172.045 138.149 172.214 138.301 172.347C138.454 172.48 138.643 172.571 138.849 172.61C139.191 172.721 139.558 172.748 139.915 172.69C140.272 172.632 140.607 172.49 140.886 172.278C141.812 171.259 145.523 168.535 145.523 167.17C145.523 165.804 143.857 167.339 143.108 167.686C141.434 168.615 139.84 169.662 138.342 170.816Z" fill="white" stroke="#263238" stroke-linejoin="round"/>
<path d="M149.428 175.172C149.428 175.172 143.857 177.727 142.923 178.753" stroke="#263238" stroke-linejoin="round"/>
<path d="M151.102 177.903C151.102 177.903 146.65 179.771 145.161 181.307" stroke="#263238" stroke-linejoin="round"/>
<path d="M151.464 186.925L148.872 184.88L140.885 192.034L146.272 195.784C146.272 195.784 151.279 191.355 151.464 186.925Z" fill="#2C7250" stroke="#263238" stroke-linejoin="round"/>
<path d="M202.821 226.517C202.821 226.517 194.199 245.129 192.283 252.888C190.367 260.647 186.728 275.367 186.728 276.246" stroke="#757575" stroke-linejoin="round"/>
<path d="M190.367 231.788L195.35 237.052" stroke="#757575" stroke-linejoin="round"/>
<path d="M179.071 316.613C179.071 316.613 177.92 318.894 172.365 319.942C166.81 320.991 161.641 319.071 160.683 319.241C159.725 319.411 158.767 320.998 158.767 322.408C158.767 323.818 165.473 327.672 168.154 328.905C170.29 329.738 172.551 330.271 174.861 330.485H175.811L175.625 332.242C177.182 332.81 178.78 333.279 180.408 333.644C181.87 333.842 183.357 333.842 184.819 333.644C185.401 331.398 185.723 329.102 185.777 326.793C185.908 324.38 186.49 322.005 187.5 319.773L179.071 316.613Z" fill="#616161" stroke="#263238" stroke-linejoin="round"/>
<path d="M185.399 330.898C181.623 330.447 174.659 329.421 170.433 327.945C165.956 326.395 160.941 323.235 158.815 321.832C158.783 322.015 158.767 322.2 158.767 322.386C158.767 323.789 165.473 327.65 168.154 328.882C170.29 329.716 172.551 330.248 174.861 330.462H175.811L175.625 332.219C177.182 332.788 178.78 333.257 180.408 333.622C181.87 333.82 183.357 333.82 184.819 333.622C184.819 333.622 185.125 332.5 185.399 330.898Z" stroke="#263238" stroke-linejoin="round"/>
</svg>
